<svg xmlns="http://www.w3.org/2000/svg" xmlns:xlink="http://www.w3.org/1999/xlink" viewBox="0 0 90 40"><defs><style>.cls-1{isolation:isolate;}.cls-2{fill:#062a30;}.cls-3{mix-blend-mode:multiply;}.cls-4{fill:#fff;}.cls-5{fill:#fefefe;}.cls-6{fill:#fdfdfd;}.cls-7{fill:#fcfcfc;}.cls-8{fill:#fbfbfb;}.cls-9{fill:#fafafa;}.cls-10{fill:#f9f9f9;}.cls-11{fill:#f8f8f8;}.cls-12{fill:#f7f7f7;}.cls-13{fill:#f6f6f6;}.cls-14{fill:#f5f5f5;}.cls-15{fill:#f4f4f4;}.cls-16{fill:#f3f3f3;}.cls-17{fill:#f2f2f2;}.cls-18{fill:#f1f1f1;}.cls-19{fill:#f0f0f0;}.cls-20{fill:#efefef;}.cls-21{fill:#eee;}.cls-22{fill:#ededed;}.cls-23{fill:#ededec;}.cls-24{fill:#ececeb;}.cls-25{fill:#ebebea;}.cls-26{fill:#eaeae9;}.cls-27{fill:#e9e9e8;}.cls-28{fill:#e8e8e7;}.cls-29{fill:#e7e7e6;}.cls-30{fill:#e6e6e5;}.cls-31{fill:#e5e5e4;}.cls-32{fill:#e4e4e3;}.cls-33{fill:#e3e3e2;}.cls-34{fill:#e2e2e1;}.cls-35{fill:#e1e1e0;}.cls-36{fill:#e0e0df;}.cls-37{fill:#dfdfde;}.cls-38{fill:#dededd;}.cls-39{fill:#dddddc;}.cls-40{fill:#dcdcdb;}.cls-41{fill:#dbdbda;}.cls-42{fill:#dadada;}.cls-43{fill:#d9d9d9;}.cls-44{fill:#d8d8d8;}.cls-45{fill:#d7d7d7;}.cls-46{fill:#d6d6d6;}.cls-47{fill:#d5d5d5;}.cls-48{fill:#d4d4d4;}.cls-49{fill:#d3d3d3;}.cls-50{fill:#d2d2d2;}.cls-51{fill:#d1d1d1;}.cls-52{fill:#d0d0d0;}.cls-53{fill:#cfcfcf;}.cls-54{fill:#cecece;}.cls-55{fill:#cdcdcd;}.cls-56{fill:#ccc;}.cls-57{fill:#cbcbcb;}.cls-58{fill:#cacaca;}.cls-59{fill:#c9c9c9;}.cls-60{fill:#c9c9c8;}.cls-61{fill:#c8c8c7;}.cls-62{fill:#c7c7c6;}.cls-63{fill:#c6c6c5;}.cls-64{fill:#c5c5c4;}.cls-65{fill:#c4c4c3;}.cls-66{fill:#c3c3c2;}.cls-67{fill:#c2c2c1;}.cls-68{fill:#c1c1c0;}.cls-69{fill:#c0c0bf;}.cls-70{fill:#bfbfbe;}.cls-71{fill:#bebebd;}.cls-72{fill:#bdbdbc;}.cls-73{fill:#bcbcbb;}.cls-74{fill:#bbbbba;}.cls-75{fill:#babab9;}.cls-76{fill:#b9b9b8;}.cls-77{fill:#b8b8b7;}.cls-78{fill:#b7b7b6;}.cls-79{fill:url(#名称未設定グラデーション_11);}</style><linearGradient id="名称未設定グラデーション_11" x1="-14713.14" y1="-8102.63" x2="-14698.86" y2="-8095.97" gradientTransform="translate(14723.77 8120.56)" gradientUnits="userSpaceOnUse"><stop offset="0" stop-color="#0b7583"/><stop offset="0.02" stop-color="#0c6f7d"/><stop offset="0.1" stop-color="#0e5765"/><stop offset="0.2" stop-color="#104552"/><stop offset="0.32" stop-color="#123845"/><stop offset="0.47" stop-color="#13303d"/><stop offset="0.76" stop-color="#132e3b"/></linearGradient></defs><title>logo-recruit</title><g class="cls-1"><g id="レイヤー_1" data-name="レイヤー 1"><path class="cls-2" d="M32.61,30.3H30.67c-.18,0-.24-.12-.32-.23L28.06,27h-.22c-.41,0-1.05,0-1.42-.05v3.14c0,.12-.12.23-.3.23H24.53c-.17,0-.31-.11-.31-.23V22.12c0-.23.19-.32.51-.35a30.23,30.23,0,0,1,3.11-.15c2.45,0,4.58.64,4.58,2.61v.11c0,1.22-.85,2-2.15,2.35l2.49,3.38C32.84,30.18,32.78,30.3,32.61,30.3Zm-2.39-6.07c0-.87-.79-1.24-2.38-1.24-.33,0-1.13,0-1.42.05v2.6l1.42,0c1.64,0,2.38-.33,2.38-1.34Z"/><path class="cls-2" d="M41.12,30.23a20,20,0,0,1-3,.16c-2.07,0-3.68-.4-3.68-2.37V24c0-2,1.61-2.37,3.68-2.37a20,20,0,0,1,3,.16c.24,0,.32.08.32.24v.74c0,.13-.14.23-.32.23H37.88c-.92,0-1.25.24-1.25,1v1.25h4.3c.18,0,.32.1.32.23v.83c0,.13-.14.23-.32.23h-4.3V28c0,.76.33,1,1.25,1h3.24c.18,0,.32.11.32.24V30C41.44,30.15,41.36,30.2,41.12,30.23Z"/><path class="cls-2" d="M50.12,30.2a15.65,15.65,0,0,1-2.51.19c-1.91,0-4.5-.68-4.5-3.54V25.16c0-2.9,2.59-3.54,4.5-3.54a17.6,17.6,0,0,1,2.51.18c.2.05.35.11.35.27v.77c0,.15-.1.26-.35.25-.56,0-1.64-.1-2.48-.1-1.34,0-2.31.52-2.31,2.17v1.69c0,1.61,1,2.16,2.31,2.16.84,0,1.92-.05,2.48-.09.25,0,.35.09.35.24v.78C50.47,30.1,50.32,30.16,50.12,30.2Z"/><path class="cls-2" d="M60.61,30.3H58.67c-.18,0-.24-.12-.32-.23L56.06,27h-.22c-.41,0-1.05,0-1.41-.05v3.14c0,.12-.13.23-.31.23H52.53c-.17,0-.31-.11-.31-.23V22.12c0-.23.19-.32.51-.35a30.23,30.23,0,0,1,3.11-.15c2.45,0,4.58.64,4.58,2.61v.11c0,1.22-.85,2-2.15,2.35l2.49,3.38C60.84,30.18,60.78,30.3,60.61,30.3Zm-2.39-6.07c0-.87-.79-1.24-2.38-1.24-.33,0-1.13,0-1.41.05v2.6l1.41,0c1.63,0,2.38-.33,2.38-1.34Z"/><path class="cls-2" d="M70,30.19c-.56.06-2.56.2-3.53.2-2.56,0-4.34-.79-4.34-3.25V21.93c0-.13.14-.22.32-.22H64c.18,0,.32.09.32.22v5.21c0,1.32.41,1.92,2.13,1.92.63,0,1.6,0,2.19-.09v-7c0-.13.13-.22.3-.22h1.57c.18,0,.32.09.32.22v7.56C70.85,30,70.57,30.14,70,30.19Z"/><path class="cls-2" d="M75,30.3H73.4c-.18,0-.32-.11-.32-.23V21.93c0-.13.14-.22.32-.22H75c.17,0,.32.09.32.22v8.14C75.29,30.19,75.14,30.3,75,30.3Z"/><path class="cls-2" d="M84.88,23.05H82.1v7c0,.12-.14.23-.32.23H80.21c-.17,0-.32-.11-.32-.23v-7H77.11c-.17,0-.32-.08-.32-.21v-.91c0-.13.15-.22.32-.22h7.77c.17,0,.32.09.32.22v.91C85.2,23,85.05,23.05,84.88,23.05Z"/><g class="cls-3"><path class="cls-4" d="M13.23,30.71c-1.45,0-2.74-.46-2.74-1.47a11.9,11.9,0,0,1,2.67-5.46,14,14,0,0,1,4.19-3.42,15.28,15.28,0,0,1,7.2-1.67,19.14,19.14,0,0,1,2.56.18.59.59,0,0,1,.43.68,1,1,0,0,1-1.14.92c-3,0-5.24.68-6.89,2.11a8.44,8.44,0,0,0-2,2.74,14.79,14.79,0,0,0-1.21,3.93C16.06,30.34,14.08,30.71,13.23,30.71Z"/><path class="cls-5" d="M17.38,20.36a15.15,15.15,0,0,1,7.17-1.67,17.46,17.46,0,0,1,2.56.19c.27,0,.45.31.42.67a.84.84,0,0,1-.22.54,1.17,1.17,0,0,1-.93.37c-3,0-5.22.69-6.87,2.12a8.5,8.5,0,0,0-2,2.73,15.41,15.41,0,0,0-1.22,3.93.89.89,0,0,1-.15.38c-.52.8-2.12,1.09-2.87,1.09-1.44,0-2.74-.46-2.74-1.47a12,12,0,0,1,2.68-5.46A13.76,13.76,0,0,1,17.38,20.36Z"/><path class="cls-6" d="M17.4,20.35a15.24,15.24,0,0,1,7.16-1.65,18.88,18.88,0,0,1,2.55.18.58.58,0,0,1,.42.68.91.91,0,0,1-.23.53,1.18,1.18,0,0,1-.93.37c-3,0-5.22.68-6.87,2.12a8.54,8.54,0,0,0-2,2.73,15.69,15.69,0,0,0-1.21,3.93,1.2,1.2,0,0,1-.15.37c-.52.81-2.11,1.1-2.86,1.1-1.45,0-2.75-.46-2.75-1.47a12,12,0,0,1,2.69-5.47A13.84,13.84,0,0,1,17.4,20.35Z"/><path class="cls-7" d="M17.42,20.35a15.22,15.22,0,0,1,7.15-1.65,18.79,18.79,0,0,1,2.54.19c.27,0,.44.32.41.67a.91.91,0,0,1-.23.53,1.23,1.23,0,0,1-.93.36c-3,0-5.22.69-6.86,2.13a8.39,8.39,0,0,0-2,2.73,15.2,15.2,0,0,0-1.22,3.92.89.89,0,0,1-.15.38c-.51.8-2.09,1.1-2.85,1.1-1.45,0-2.74-.46-2.74-1.47a11.94,11.94,0,0,1,2.69-5.47A13.75,13.75,0,0,1,17.42,20.35Z"/><path class="cls-8" d="M17.44,20.34a15.18,15.18,0,0,1,7.13-1.63,18.62,18.62,0,0,1,2.54.18c.27,0,.44.32.41.68a.89.89,0,0,1-.24.52,1.23,1.23,0,0,1-.93.36c-3,0-5.21.69-6.86,2.13a8.43,8.43,0,0,0-2,2.72,15.33,15.33,0,0,0-1.22,3.92,1.16,1.16,0,0,1-.15.38c-.5.81-2.09,1.11-2.85,1.11-1.44,0-2.74-.46-2.74-1.47a12,12,0,0,1,2.7-5.48A13.92,13.92,0,0,1,17.44,20.34Z"/><path class="cls-9" d="M17.46,20.34a15.29,15.29,0,0,1,7.12-1.63,18.64,18.64,0,0,1,2.53.19c.27,0,.44.32.4.67a.87.87,0,0,1-.24.52,1.24,1.24,0,0,1-.93.35c-3,0-5.21.7-6.85,2.14a8.35,8.35,0,0,0-2,2.72,15.33,15.33,0,0,0-1.22,3.92,1.09,1.09,0,0,1-.14.38c-.5.8-2.08,1.1-2.85,1.11-1.44,0-2.74-.46-2.74-1.47a12,12,0,0,1,2.71-5.48A13.68,13.68,0,0,1,17.46,20.34Z"/><path class="cls-10" d="M17.49,20.33a15.18,15.18,0,0,1,7.1-1.61,18.34,18.34,0,0,1,2.52.18.55.55,0,0,1,.39.68.87.87,0,0,1-.24.51,1.24,1.24,0,0,1-.93.35c-3,0-5.21.7-6.85,2.14a8.33,8.33,0,0,0-2,2.72,15.25,15.25,0,0,0-1.22,3.91,1.26,1.26,0,0,1-.15.38c-.49.81-2.06,1.11-2.84,1.12-1.44,0-2.74-.46-2.74-1.47a12.2,12.2,0,0,1,2.72-5.49A13.81,13.81,0,0,1,17.49,20.33Z"/><path class="cls-11" d="M17.51,20.33a15.27,15.27,0,0,1,7.08-1.61,18.38,18.38,0,0,1,2.52.19c.27,0,.43.32.39.67a.87.87,0,0,1-.26.51,1.3,1.3,0,0,1-.92.35c-3,0-5.2.7-6.84,2.13a8.57,8.57,0,0,0-2,2.72,15.33,15.33,0,0,0-1.22,3.92,1.09,1.09,0,0,1-.14.38c-.49.81-2,1.11-2.83,1.11-1.44,0-2.74-.46-2.74-1.46a12,12,0,0,1,2.72-5.49A13.72,13.72,0,0,1,17.51,20.33Z"/><path class="cls-12" d="M17.53,20.32a15.24,15.24,0,0,1,7.07-1.59,18.31,18.31,0,0,1,2.51.18c.27,0,.43.33.38.68a.87.87,0,0,1-.26.5,1.28,1.28,0,0,1-.93.34c-2.95,0-5.19.71-6.83,2.14a8.58,8.58,0,0,0-2,2.72,15.37,15.37,0,0,0-1.22,3.91,1.57,1.57,0,0,1-.14.38c-.49.81-2,1.12-2.83,1.12-1.44,0-2.74-.46-2.74-1.46a12.17,12.17,0,0,1,2.73-5.5A13.77,13.77,0,0,1,17.53,20.32Z"/><path class="cls-13" d="M17.55,20.32a15.22,15.22,0,0,1,7.06-1.59,20.1,20.1,0,0,1,2.51.19c.26,0,.42.33.36.68a.79.79,0,0,1-.26.49,1.32,1.32,0,0,1-.93.34c-2.95,0-5.19.71-6.82,2.14a8.29,8.29,0,0,0-2,2.72,14.79,14.79,0,0,0-1.22,3.9,1.32,1.32,0,0,1-.15.39c-.48.81-2,1.12-2.82,1.12-1.44,0-2.74-.46-2.74-1.46a12.12,12.12,0,0,1,2.74-5.5A13.79,13.79,0,0,1,17.55,20.32Z"/><path class="cls-14" d="M17.57,20.31a15.27,15.27,0,0,1,7-1.57,18.31,18.31,0,0,1,2.51.18c.26,0,.42.33.36.68a.83.83,0,0,1-.27.49,1.32,1.32,0,0,1-.93.33c-3,0-5.18.72-6.82,2.15a8.58,8.58,0,0,0-2,2.72,15.17,15.17,0,0,0-1.22,3.9,1.09,1.09,0,0,1-.14.38c-.48.82-2,1.13-2.82,1.13-1.43,0-2.73-.46-2.73-1.46a12.18,12.18,0,0,1,2.74-5.51A13.87,13.87,0,0,1,17.57,20.31Z"/><path class="cls-15" d="M17.59,20.31a15.26,15.26,0,0,1,7-1.57,19.8,19.8,0,0,1,2.5.19c.25,0,.41.33.35.68a.78.78,0,0,1-.27.48,1.38,1.38,0,0,1-.93.33c-2.95,0-5.18.72-6.81,2.15a8.35,8.35,0,0,0-2,2.71,15.29,15.29,0,0,0-1.22,3.9,1.32,1.32,0,0,1-.15.39c-.46.81-2,1.12-2.81,1.13-1.43,0-2.73-.46-2.73-1.46a12.13,12.13,0,0,1,2.75-5.51A13.64,13.64,0,0,1,17.59,20.31Z"/><path class="cls-16" d="M17.62,20.31a15.17,15.17,0,0,1,7-1.56,18,18,0,0,1,2.49.18.54.54,0,0,1,.35.68.82.82,0,0,1-.28.48,1.35,1.35,0,0,1-.93.32c-2.94,0-5.18.73-6.81,2.16a8.65,8.65,0,0,0-2,2.71,15.17,15.17,0,0,0-1.22,3.9,1.09,1.09,0,0,1-.14.38c-.46.82-2,1.13-2.81,1.14-1.42,0-2.73-.46-2.73-1.46a12.27,12.27,0,0,1,2.76-5.52A13.72,13.72,0,0,1,17.62,20.31Z"/><path class="cls-17" d="M17.64,20.3a15.28,15.28,0,0,1,7-1.55,19.79,19.79,0,0,1,2.49.19c.25,0,.41.33.34.68a.78.78,0,0,1-.28.47,1.46,1.46,0,0,1-.93.32,10,10,0,0,0-6.8,2.16,8.65,8.65,0,0,0-2,2.71,15.21,15.21,0,0,0-1.22,3.89,1.64,1.64,0,0,1-.14.39c-.46.82-2,1.13-2.8,1.14-1.43,0-2.74-.46-2.74-1.46a12.22,12.22,0,0,1,2.77-5.52A13.79,13.79,0,0,1,17.64,20.3Z"/><path class="cls-18" d="M17.66,20.3a15.21,15.21,0,0,1,7-1.54,17.77,17.77,0,0,1,2.48.18c.25,0,.4.34.33.68a.78.78,0,0,1-.28.47,1.4,1.4,0,0,1-.93.31,10.06,10.06,0,0,0-6.8,2.17,8.32,8.32,0,0,0-2,2.7,15.33,15.33,0,0,0-1.23,3.89,1.07,1.07,0,0,1-.14.39c-.45.82-2,1.14-2.79,1.14-1.43,0-2.73-.45-2.73-1.45a12.23,12.23,0,0,1,2.77-5.53A13.8,13.8,0,0,1,17.66,20.3Z"/><path class="cls-19" d="M17.68,20.29a15.33,15.33,0,0,1,7-1.53,19.48,19.48,0,0,1,2.47.19c.25,0,.4.34.33.68a.79.79,0,0,1-.29.46,1.51,1.51,0,0,1-.94.31,10.07,10.07,0,0,0-6.78,2.16,8.65,8.65,0,0,0-2,2.71,15.21,15.21,0,0,0-1.22,3.89,1.57,1.57,0,0,1-.14.38c-.45.83-2,1.15-2.79,1.15-1.42,0-2.73-.45-2.73-1.45a12.19,12.19,0,0,1,2.78-5.53A13.86,13.86,0,0,1,17.68,20.29Z"/><path class="cls-20" d="M17.7,20.29a15.16,15.16,0,0,1,7-1.52,17.49,17.49,0,0,1,2.46.18c.25,0,.4.34.32.68a.79.79,0,0,1-.29.46,1.45,1.45,0,0,1-.94.3,10.13,10.13,0,0,0-6.78,2.17,8.47,8.47,0,0,0-2,2.71,15.13,15.13,0,0,0-1.23,3.88,1.28,1.28,0,0,1-.13.39c-.45.82-2,1.14-2.79,1.15-1.42,0-2.73-.46-2.73-1.45a12.32,12.32,0,0,1,2.79-5.54A13.78,13.78,0,0,1,17.7,20.29Z"/><path class="cls-21" d="M17.73,20.28a15.29,15.29,0,0,1,6.93-1.51,19.48,19.48,0,0,1,2.47.19c.24,0,.39.34.31.68a.84.84,0,0,1-.3.45,1.57,1.57,0,0,1-.94.3,10,10,0,0,0-6.77,2.17,8.65,8.65,0,0,0-2,2.71,15.13,15.13,0,0,0-1.22,3.88,1.34,1.34,0,0,1-.14.38c-.44.83-1.94,1.15-2.78,1.16-1.42,0-2.73-.46-2.73-1.45a12.32,12.32,0,0,1,2.8-5.54A13.76,13.76,0,0,1,17.73,20.28Z"/><path class="cls-22" d="M17.75,20.28a15.15,15.15,0,0,1,6.92-1.5,19.4,19.4,0,0,1,2.46.18c.24,0,.38.35.3.68a.79.79,0,0,1-.3.45,1.55,1.55,0,0,1-.94.29,10.05,10.05,0,0,0-6.77,2.18,8.54,8.54,0,0,0-2,2.7,15.25,15.25,0,0,0-1.23,3.88,1.28,1.28,0,0,1-.13.39c-.44.83-1.93,1.15-2.77,1.16-1.42,0-2.73-.46-2.73-1.45a12.33,12.33,0,0,1,2.8-5.55A13.79,13.79,0,0,1,17.75,20.28Z"/><path class="cls-23" d="M17.77,20.27a15.37,15.37,0,0,1,6.91-1.49,19.18,19.18,0,0,1,2.45.19c.24,0,.38.34.29.68a.77.77,0,0,1-.3.44,1.62,1.62,0,0,1-.94.29,10,10,0,0,0-6.76,2.18,8.54,8.54,0,0,0-2,2.7,14.75,14.75,0,0,0-1.23,3.88,1.34,1.34,0,0,1-.14.38c-.43.83-1.91,1.16-2.76,1.17-1.42,0-2.73-.46-2.73-1.45a12.29,12.29,0,0,1,2.81-5.55A13.83,13.83,0,0,1,17.77,20.27Z"/><path class="cls-24" d="M17.79,20.27a15.22,15.22,0,0,1,6.89-1.48,21.11,21.11,0,0,1,2.45.18c.24,0,.38.35.29.68a.8.8,0,0,1-.31.44,1.61,1.61,0,0,1-.94.28,10.08,10.08,0,0,0-6.76,2.19,8.58,8.58,0,0,0-2,2.7,15.58,15.58,0,0,0-1.23,3.87,1.28,1.28,0,0,1-.13.39c-.42.83-1.91,1.16-2.76,1.17-1.42,0-2.73-.46-2.73-1.45a12.42,12.42,0,0,1,2.82-5.56A13.75,13.75,0,0,1,17.79,20.27Z"/><path class="cls-25" d="M17.81,20.26a15.32,15.32,0,0,1,6.88-1.46,17.33,17.33,0,0,1,2.44.18c.24,0,.38.35.28.68a.76.76,0,0,1-.31.43,1.7,1.7,0,0,1-1,.28,10,10,0,0,0-6.74,2.19,8.5,8.5,0,0,0-2,2.69,15.17,15.17,0,0,0-1.23,3.87,1.63,1.63,0,0,1-.13.39c-.42.83-1.9,1.17-2.76,1.18-1.41,0-2.73-.46-2.73-1.45a12.37,12.37,0,0,1,2.83-5.56A13.82,13.82,0,0,1,17.81,20.26Z"/><path class="cls-26" d="M17.83,20.26A15.3,15.3,0,0,1,24.7,18.8a20.78,20.78,0,0,1,2.43.18c.24,0,.37.35.27.68a.69.69,0,0,1-.31.43,1.67,1.67,0,0,1-.95.27,10,10,0,0,0-6.74,2.2,8.53,8.53,0,0,0-2,2.69,15.18,15.18,0,0,0-1.22,3.87,1.64,1.64,0,0,1-.14.39c-.41.83-1.88,1.16-2.75,1.17-1.41,0-2.72-.45-2.72-1.44a12.34,12.34,0,0,1,2.84-5.57A13.67,13.67,0,0,1,17.83,20.26Z"/><path class="cls-27" d="M17.86,20.25a15.18,15.18,0,0,1,6.84-1.44,17.08,17.08,0,0,1,2.43.18c.23,0,.37.35.27.68a.74.74,0,0,1-.33.42,1.78,1.78,0,0,1-.94.27,10,10,0,0,0-6.73,2.2,8.39,8.39,0,0,0-2,2.69,15.09,15.09,0,0,0-1.23,3.86,1.63,1.63,0,0,1-.13.39c-.41.84-1.87,1.17-2.74,1.18-1.42,0-2.73-.45-2.73-1.44a12.34,12.34,0,0,1,2.85-5.57A13.67,13.67,0,0,1,17.86,20.25Z"/><path class="cls-28" d="M17.88,20.25a15.3,15.3,0,0,1,6.83-1.44,20.46,20.46,0,0,1,2.42.18c.23,0,.37.36.26.68a.71.71,0,0,1-.33.42,1.78,1.78,0,0,1-.94.27,10.06,10.06,0,0,0-6.73,2.19,8.74,8.74,0,0,0-2,2.69,14.79,14.79,0,0,0-1.23,3.87,2,2,0,0,1-.13.39c-.41.83-1.87,1.17-2.74,1.18-1.41,0-2.73-.46-2.73-1.44a12.48,12.48,0,0,1,2.86-5.58A13.6,13.6,0,0,1,17.88,20.25Z"/><path class="cls-29" d="M17.9,20.24a15.26,15.26,0,0,1,6.82-1.42,17.16,17.16,0,0,1,2.42.18c.22,0,.36.35.25.68a.75.75,0,0,1-.34.41,1.8,1.8,0,0,1-.94.26,10,10,0,0,0-6.72,2.2,8.61,8.61,0,0,0-2,2.69,15.22,15.22,0,0,0-1.23,3.86,1.63,1.63,0,0,1-.13.39c-.4.84-1.85,1.18-2.73,1.19-1.41,0-2.73-.46-2.73-1.44a12.43,12.43,0,0,1,2.87-5.58A13.63,13.63,0,0,1,17.9,20.24Z"/><path class="cls-30" d="M17.92,20.24a15.37,15.37,0,0,1,6.8-1.42,20.61,20.61,0,0,1,2.42.18c.22,0,.35.36.24.68a.71.71,0,0,1-.34.41,1.83,1.83,0,0,1-.94.26,10,10,0,0,0-6.72,2.2,8.74,8.74,0,0,0-2,2.69,14.76,14.76,0,0,0-1.23,3.85,1.87,1.87,0,0,1-.13.4c-.4.84-1.84,1.18-2.73,1.19-1.41,0-2.72-.46-2.72-1.44a12.44,12.44,0,0,1,2.87-5.59A13.53,13.53,0,0,1,17.92,20.24Z"/><path class="cls-31" d="M17.94,20.23a15.34,15.34,0,0,1,6.79-1.4,16.91,16.91,0,0,1,2.41.18c.22,0,.35.36.23.68a.72.72,0,0,1-.34.4,1.94,1.94,0,0,1-.94.25,10.06,10.06,0,0,0-6.71,2.21,8.65,8.65,0,0,0-2,2.69,15,15,0,0,0-1.23,3.85,1.28,1.28,0,0,1-.13.39c-.39.84-1.82,1.18-2.72,1.2-1.4,0-2.72-.46-2.72-1.44a12.4,12.4,0,0,1,2.88-5.59A13.7,13.7,0,0,1,17.94,20.23Z"/><path class="cls-32" d="M18,20.23a15.24,15.24,0,0,1,6.77-1.4,20.28,20.28,0,0,1,2.4.18c.22,0,.35.36.23.68a.75.75,0,0,1-.35.4,2,2,0,0,1-.95.25,10.06,10.06,0,0,0-6.7,2.21,8.7,8.7,0,0,0-2,2.68,15.14,15.14,0,0,0-1.23,3.85,1.87,1.87,0,0,1-.13.4c-.38.84-1.82,1.18-2.72,1.2-1.4,0-2.72-.46-2.72-1.44a12.52,12.52,0,0,1,2.89-5.59A13.56,13.56,0,0,1,18,20.23Z"/><path class="cls-33" d="M18,20.22a15.33,15.33,0,0,1,6.75-1.38,16.67,16.67,0,0,1,2.4.18c.22,0,.35.36.22.68a.73.73,0,0,1-.35.39,2,2,0,0,1-1,.24,10,10,0,0,0-6.69,2.22,8.54,8.54,0,0,0-2,2.68,15.14,15.14,0,0,0-1.24,3.85,1.76,1.76,0,0,1-.12.39c-.38.84-1.81,1.19-2.71,1.2-1.4,0-2.73-.45-2.73-1.43a12.48,12.48,0,0,1,2.9-5.6A13.51,13.51,0,0,1,18,20.22Z"/><path class="cls-34" d="M18,20.22a15.29,15.29,0,0,1,6.74-1.38,20.12,20.12,0,0,1,2.39.18c.22,0,.34.37.22.68a.76.76,0,0,1-.36.39,2.14,2.14,0,0,1-.95.24,10,10,0,0,0-6.69,2.22,8.7,8.7,0,0,0-2,2.68,15.06,15.06,0,0,0-1.23,3.84,1.87,1.87,0,0,1-.13.4c-.37.84-1.79,1.19-2.7,1.2-1.4,0-2.72-.45-2.72-1.43a12.48,12.48,0,0,1,2.9-5.6A13.52,13.52,0,0,1,18,20.22Z"/><path class="cls-35" d="M18,20.21a15.42,15.42,0,0,1,6.73-1.36,20,20,0,0,1,2.38.18c.22,0,.34.36.21.68a.7.7,0,0,1-.36.38,2.14,2.14,0,0,1-.95.23,10,10,0,0,0-6.68,2.23,8.5,8.5,0,0,0-2,2.67,15.19,15.19,0,0,0-1.24,3.84,1.42,1.42,0,0,1-.12.4c-.37.85-1.78,1.2-2.7,1.21-1.4,0-2.72-.45-2.72-1.43a12.5,12.5,0,0,1,2.91-5.61A13.7,13.7,0,0,1,18,20.21Z"/><path class="cls-36" d="M18.05,20.21a15.36,15.36,0,0,1,6.71-1.36,19.8,19.8,0,0,1,2.38.18c.22,0,.34.37.2.69a.71.71,0,0,1-.36.37,2.18,2.18,0,0,1-.95.23,10,10,0,0,0-6.68,2.23,8.81,8.81,0,0,0-2,2.67,15.19,15.19,0,0,0-1.23,3.84,2.64,2.64,0,0,1-.12.4c-.37.84-1.78,1.2-2.7,1.21-1.39,0-2.72-.46-2.72-1.43a12.57,12.57,0,0,1,2.92-5.61A13.59,13.59,0,0,1,18.05,20.21Z"/><path class="cls-37" d="M18.07,20.2a15.47,15.47,0,0,1,6.7-1.34,20,20,0,0,1,2.38.18c.21,0,.33.37.19.68a.74.74,0,0,1-.37.37,2.37,2.37,0,0,1-.95.22,10,10,0,0,0-6.67,2.23,8.54,8.54,0,0,0-2,2.68,15,15,0,0,0-1.24,3.83,1.42,1.42,0,0,1-.12.4c-.36.85-1.76,1.21-2.69,1.22-1.39,0-2.71-.46-2.71-1.43a12.47,12.47,0,0,1,2.92-5.62A13.53,13.53,0,0,1,18.07,20.2Z"/><path class="cls-38" d="M18.1,20.2a15.35,15.35,0,0,1,6.68-1.34,20,20,0,0,1,2.37.18c.2,0,.33.37.18.69a.72.72,0,0,1-.37.36,2.37,2.37,0,0,1-.95.22,10,10,0,0,0-6.67,2.23,8.67,8.67,0,0,0-2,2.68,14.6,14.6,0,0,0-1.24,3.83,2.64,2.64,0,0,1-.12.4c-.36.84-1.75,1.2-2.68,1.22-1.4,0-2.72-.46-2.72-1.43a12.59,12.59,0,0,1,2.93-5.62A13.53,13.53,0,0,1,18.1,20.2Z"/><path class="cls-39" d="M18.12,20.2a15.18,15.18,0,0,1,6.66-1.33,19.8,19.8,0,0,1,2.37.18c.2,0,.32.37.18.68a.75.75,0,0,1-.38.36,2.27,2.27,0,0,1-1,.21,10,10,0,0,0-6.65,2.24,8.77,8.77,0,0,0-2,2.67A15.52,15.52,0,0,0,16.09,29a1.42,1.42,0,0,1-.12.4c-.35.85-1.73,1.21-2.67,1.23-1.39,0-2.72-.46-2.72-1.43a12.6,12.6,0,0,1,2.94-5.63A13.53,13.53,0,0,1,18.12,20.2Z"/><path class="cls-40" d="M18.14,20.19a15.43,15.43,0,0,1,6.65-1.32,19.63,19.63,0,0,1,2.36.18c.2,0,.32.38.17.69a.73.73,0,0,1-.38.35,2.43,2.43,0,0,1-1,.21,10,10,0,0,0-6.65,2.24,8.74,8.74,0,0,0-2,2.67A14.6,14.6,0,0,0,16.09,29a2.52,2.52,0,0,1-.12.39c-.35.86-1.73,1.22-2.67,1.23-1.39,0-2.72-.45-2.72-1.42a12.68,12.68,0,0,1,2.95-5.63A13.46,13.46,0,0,1,18.14,20.19Z"/><path class="cls-41" d="M18.16,20.19a15.27,15.27,0,0,1,6.64-1.31,19.47,19.47,0,0,1,2.35.18c.2,0,.32.37.16.68a.73.73,0,0,1-.38.35,2.48,2.48,0,0,1-1,.2,10,10,0,0,0-6.64,2.25,8.77,8.77,0,0,0-2,2.67A15,15,0,0,0,16.09,29a2.64,2.64,0,0,1-.12.4c-.34.85-1.72,1.22-2.67,1.23-1.39,0-2.71-.45-2.71-1.42a12.57,12.57,0,0,1,2.95-5.64A13.52,13.52,0,0,1,18.16,20.19Z"/><path class="cls-42" d="M18.18,20.18a15.53,15.53,0,0,1,6.63-1.3,19.31,19.31,0,0,1,2.34.18c.2,0,.32.38.16.69a.74.74,0,0,1-.39.34,2.72,2.72,0,0,1-1,.2,10,10,0,0,0-6.64,2.25,8.82,8.82,0,0,0-2,2.66A15.16,15.16,0,0,0,16.08,29a2.34,2.34,0,0,1-.12.4c-.33.86-1.7,1.23-2.66,1.24-1.38,0-2.71-.45-2.71-1.42a12.65,12.65,0,0,1,3-5.64A13.56,13.56,0,0,1,18.18,20.18Z"/><path class="cls-43" d="M18.2,20.18a15.35,15.35,0,0,1,6.61-1.29,19.31,19.31,0,0,1,2.34.18c.2,0,.31.38.15.68a.69.69,0,0,1-.4.34,2.43,2.43,0,0,1-.95.19,10,10,0,0,0-6.63,2.26,8.7,8.7,0,0,0-2,2.66A14.65,14.65,0,0,0,16.08,29a2.64,2.64,0,0,1-.12.4c-.33.86-1.69,1.22-2.66,1.24-1.38,0-2.71-.45-2.71-1.42a12.66,12.66,0,0,1,3-5.65A13.46,13.46,0,0,1,18.2,20.18Z"/><path class="cls-44" d="M18.23,20.17a15.53,15.53,0,0,1,6.59-1.28,19.15,19.15,0,0,1,2.33.18c.2,0,.31.38.14.69a.71.71,0,0,1-.4.33,2.86,2.86,0,0,1-.95.19,10,10,0,0,0-6.63,2.26,8.58,8.58,0,0,0-2,2.66A15,15,0,0,0,16.07,29a2.62,2.62,0,0,1-.11.4c-.33.86-1.69,1.23-2.65,1.25-1.39,0-2.72-.45-2.72-1.42a12.74,12.74,0,0,1,3-5.65A13.44,13.44,0,0,1,18.23,20.17Z"/><path class="cls-45" d="M18.25,20.17a15.37,15.37,0,0,1,6.58-1.27,19,19,0,0,1,2.32.18c.2,0,.31.38.14.68a.7.7,0,0,1-.41.33,2.91,2.91,0,0,1-.95.19,10,10,0,0,0-6.62,2.25,8.82,8.82,0,0,0-2,2.66A14.77,14.77,0,0,0,16.07,29a3,3,0,0,1-.12.4c-.32.86-1.67,1.23-2.64,1.25-1.38,0-2.71-.46-2.71-1.42a12.68,12.68,0,0,1,3-5.66A13.5,13.5,0,0,1,18.25,20.17Z"/><path class="cls-46" d="M18.27,20.16a15.46,15.46,0,0,1,6.56-1.26,21.4,21.4,0,0,1,2.33.18c.19,0,.3.39.12.69a.73.73,0,0,1-.41.32,3,3,0,0,1-1,.18,10.07,10.07,0,0,0-6.61,2.26,8.82,8.82,0,0,0-2,2.66A15.49,15.49,0,0,0,16.06,29a1.82,1.82,0,0,1-.11.4c-.32.86-1.66,1.24-2.64,1.26-1.38,0-2.71-.46-2.71-1.42a12.75,12.75,0,0,1,3-5.66A13.44,13.44,0,0,1,18.27,20.16Z"/><path class="cls-47" d="M18.29,20.16a15.42,15.42,0,0,1,6.55-1.25,19,19,0,0,1,2.32.18c.19,0,.3.38.12.68a.68.68,0,0,1-.42.32,3.28,3.28,0,0,1-1,.18,10,10,0,0,0-6.6,2.26,8.82,8.82,0,0,0-2,2.66A14.62,14.62,0,0,0,16.06,29c0,.14-.07.28-.11.41-.32.86-1.65,1.23-2.64,1.26-1.38,0-2.71-.46-2.71-1.42a12.89,12.89,0,0,1,3-5.67A13.44,13.44,0,0,1,18.29,20.16Z"/><path class="cls-48" d="M18.31,20.15a15.57,15.57,0,0,1,6.54-1.24,21.23,21.23,0,0,1,2.31.18c.19,0,.29.39.11.69a.7.7,0,0,1-.42.31,3.3,3.3,0,0,1-1,.17,10,10,0,0,0-6.6,2.27,8.79,8.79,0,0,0-2,2.66A15,15,0,0,0,16.05,29a1.82,1.82,0,0,1-.11.4c-.31.87-1.64,1.24-2.63,1.26-1.37,0-2.71-.45-2.71-1.41a12.79,12.79,0,0,1,3-5.67A13.62,13.62,0,0,1,18.31,20.15Z"/><path class="cls-49" d="M18.34,20.15a15.43,15.43,0,0,1,6.51-1.23,18.69,18.69,0,0,1,2.31.18c.19,0,.29.39.1.68a.7.7,0,0,1-.42.31,3.43,3.43,0,0,1-1,.17,10,10,0,0,0-6.59,2.27,8.78,8.78,0,0,0-2,2.65A14.62,14.62,0,0,0,16.05,29c0,.14-.07.28-.11.41-.31.86-1.63,1.24-2.62,1.26-1.38,0-2.71-.45-2.71-1.41a12.85,12.85,0,0,1,3-5.68A13.57,13.57,0,0,1,18.34,20.15Z"/><path class="cls-50" d="M18.36,20.14a15.58,15.58,0,0,1,6.5-1.22c.76,0,1.48.08,2.3.18.18,0,.29.4.1.69a.75.75,0,0,1-.43.3,3.44,3.44,0,0,1-1,.16,10,10,0,0,0-6.59,2.28,8.91,8.91,0,0,0-2,2.65A15,15,0,0,0,16,29a1.82,1.82,0,0,1-.11.4c-.3.87-1.61,1.25-2.61,1.27-1.37,0-2.71-.45-2.71-1.41a12.86,12.86,0,0,1,3-5.68A13.42,13.42,0,0,1,18.36,20.14Z"/><path class="cls-51" d="M18.38,20.14a15.54,15.54,0,0,1,6.49-1.21,18.68,18.68,0,0,1,2.29.18c.18,0,.29.39.09.68a.71.71,0,0,1-.43.3,3.85,3.85,0,0,1-1,.16,10,10,0,0,0-6.58,2.28,8.78,8.78,0,0,0-2,2.65A14.93,14.93,0,0,0,16,29a2.75,2.75,0,0,1-.11.41c-.29.86-1.6,1.25-2.61,1.27-1.37,0-2.71-.45-2.71-1.41a13,13,0,0,1,3-5.69A13.44,13.44,0,0,1,18.38,20.14Z"/><path class="cls-52" d="M18.4,20.13a15.67,15.67,0,0,1,6.47-1.2c.76,0,1.48.08,2.29.18.18,0,.28.4.09.69a.76.76,0,0,1-.44.29,4,4,0,0,1-1,.15,10,10,0,0,0-6.58,2.29,9,9,0,0,0-2,2.64A15.06,15.06,0,0,0,16,29a2.73,2.73,0,0,1-.1.41c-.29.87-1.6,1.26-2.61,1.28-1.37,0-2.71-.45-2.71-1.41a12.9,12.9,0,0,1,3-5.69A13.6,13.6,0,0,1,18.4,20.13Z"/><path class="cls-53" d="M18.42,20.13a15.47,15.47,0,0,1,6.46-1.19,18.37,18.37,0,0,1,2.28.18c.18,0,.28.4.08.68a.72.72,0,0,1-.44.29,4,4,0,0,1-1,.15,10,10,0,0,0-6.56,2.29,8.55,8.55,0,0,0-2,2.64A15.06,15.06,0,0,0,16,29a3.11,3.11,0,0,1-.11.41c-.28.87-1.58,1.25-2.6,1.28-1.36,0-2.7-.46-2.7-1.41a13,13,0,0,1,3-5.7A13.5,13.5,0,0,1,18.42,20.13Z"/><path class="cls-54" d="M18.44,20.12A15.59,15.59,0,0,1,24.89,19a20.44,20.44,0,0,1,2.28.17c.17,0,.27.4.06.69a.75.75,0,0,1-.44.28,4.62,4.62,0,0,1-1,.14,10.06,10.06,0,0,0-6.56,2.29,9,9,0,0,0-2,2.65A14.59,14.59,0,0,0,16,29c0,.14-.07.28-.11.41-.28.87-1.57,1.26-2.59,1.29-1.37,0-2.71-.46-2.71-1.41a12.92,12.92,0,0,1,3.05-5.7A13.35,13.35,0,0,1,18.44,20.12Z"/><path class="cls-55" d="M18.47,20.12A15.44,15.44,0,0,1,24.89,19a18.37,18.37,0,0,1,2.28.18c.17,0,.27.4.06.68a.71.71,0,0,1-.45.28,4.62,4.62,0,0,1-1,.14,10,10,0,0,0-6.55,2.29,8.75,8.75,0,0,0-2,2.65A14.84,14.84,0,0,0,16,29c0,.14-.06.27-.1.41-.28.87-1.56,1.26-2.59,1.28-1.37,0-2.71-.45-2.71-1.4a13.06,13.06,0,0,1,3.06-5.71A13.55,13.55,0,0,1,18.47,20.12Z"/><path class="cls-56" d="M18.49,20.11A15.6,15.6,0,0,1,24.9,19a20.44,20.44,0,0,1,2.27.17c.17,0,.27.41,0,.69a.7.7,0,0,1-.45.27,4.84,4.84,0,0,1-1,.13,10,10,0,0,0-6.55,2.3,9,9,0,0,0-2,2.64A14.59,14.59,0,0,0,16,28.94c0,.14-.07.28-.11.41-.27.87-1.55,1.27-2.58,1.29-1.36,0-2.71-.45-2.71-1.4a13,13,0,0,1,3.07-5.71A13.48,13.48,0,0,1,18.49,20.11Z"/><path class="cls-57" d="M18.51,20.11A15.56,15.56,0,0,1,24.91,19a18.06,18.06,0,0,1,2.26.18c.17,0,.26.4,0,.68a.7.7,0,0,1-.45.27,5.69,5.69,0,0,1-1,.13,10,10,0,0,0-6.54,2.3,8.83,8.83,0,0,0-2,2.64A15,15,0,0,0,16,28.94c0,.13-.06.27-.1.41-.27.87-1.54,1.27-2.58,1.29-1.36,0-2.7-.45-2.7-1.4a13.07,13.07,0,0,1,3.07-5.72A13.48,13.48,0,0,1,18.51,20.11Z"/><path class="cls-58" d="M18.53,20.1A15.54,15.54,0,0,1,24.91,19a20.09,20.09,0,0,1,2.26.17c.17,0,.26.41,0,.69a.74.74,0,0,1-.46.26,5.71,5.71,0,0,1-1,.12,10.07,10.07,0,0,0-6.54,2.31,8.8,8.8,0,0,0-2,2.64A14.27,14.27,0,0,0,16,28.93c0,.14-.07.28-.11.41-.26.88-1.52,1.27-2.57,1.3-1.36,0-2.7-.45-2.7-1.4a13,13,0,0,1,3.08-5.72A13.45,13.45,0,0,1,18.53,20.1Z"/><path class="cls-59" d="M18.55,20.1A15.65,15.65,0,0,1,24.92,19a19.82,19.82,0,0,1,2.25.18c.17,0,.26.41,0,.69a.75.75,0,0,1-.46.25,5.84,5.84,0,0,1-1,.12,10,10,0,0,0-6.52,2.31,8.91,8.91,0,0,0-2,2.63A15,15,0,0,0,16,28.92c0,.14-.06.28-.1.42-.26.87-1.51,1.27-2.57,1.3-1.35,0-2.7-.45-2.7-1.4a13.12,13.12,0,0,1,3.09-5.73A13.48,13.48,0,0,1,18.55,20.1Z"/><path class="cls-60" d="M18.58,20.09A15.57,15.57,0,0,1,24.93,19a19.75,19.75,0,0,1,2.24.17c.17,0,.26.41,0,.69a.76.76,0,0,1-.48.25,5.75,5.75,0,0,1-1,.11,10,10,0,0,0-6.52,2.32,9.05,9.05,0,0,0-2,2.63A14.64,14.64,0,0,0,16,28.92c0,.14-.06.27-.1.41-.26.88-1.51,1.28-2.56,1.31-1.36,0-2.7-.45-2.7-1.4a13,13,0,0,1,3.09-5.73A13.46,13.46,0,0,1,18.58,20.09Z"/><path class="cls-61" d="M18.6,20.09A15.67,15.67,0,0,1,24.93,19a19.83,19.83,0,0,1,2.24.18c.17,0,.26.41,0,.69a.76.76,0,0,1-.48.24,7,7,0,0,1-1,.11,10,10,0,0,0-6.51,2.32,8.82,8.82,0,0,0-2,2.63A15,15,0,0,0,16,28.91c0,.14-.06.28-.1.42-.24.87-1.49,1.28-2.55,1.31-1.36,0-2.7-.45-2.7-1.4a13.18,13.18,0,0,1,3.1-5.74A13.37,13.37,0,0,1,18.6,20.09Z"/><path class="cls-62" d="M18.62,20.09A15.46,15.46,0,0,1,24.94,19a19.75,19.75,0,0,1,2.24.17c.15,0,.24.42,0,.69a.76.76,0,0,1-.48.24,9.26,9.26,0,0,1-1,.11,10,10,0,0,0-6.51,2.32,8.88,8.88,0,0,0-2,2.62A15,15,0,0,0,16,28.91c0,.14-.06.27-.1.41-.24.88-1.48,1.29-2.55,1.31-1.35,0-2.7-.45-2.7-1.39a13.09,13.09,0,0,1,3.12-5.74A13.28,13.28,0,0,1,18.62,20.09Z"/><path class="cls-63" d="M18.64,20.08A15.79,15.79,0,0,1,25,19c.72,0,1.44.08,2.23.18.15,0,.24.41,0,.69a.78.78,0,0,1-.49.23,7.22,7.22,0,0,1-1,.1,10,10,0,0,0-6.5,2.32,8.88,8.88,0,0,0-2,2.63A14.57,14.57,0,0,0,16,28.9c0,.14-.06.28-.09.41-.24.89-1.47,1.3-2.55,1.32-1.35,0-2.7-.45-2.7-1.39a13.18,13.18,0,0,1,3.13-5.75A13.33,13.33,0,0,1,18.64,20.08Z"/><path class="cls-64" d="M18.66,20.08A15.57,15.57,0,0,1,25,19a19.58,19.58,0,0,1,2.22.17c.15,0,.24.42,0,.69a.78.78,0,0,1-.49.23c-.31,0-.63.08-1,.1a10,10,0,0,0-6.5,2.32,9.05,9.05,0,0,0-2,2.63A15,15,0,0,0,16,28.89c0,.14-.06.28-.1.42-.23.88-1.46,1.29-2.54,1.32-1.35,0-2.69-.45-2.69-1.39a13.64,13.64,0,0,1,8-9.16Z"/><path class="cls-65" d="M18.68,20.07A15.72,15.72,0,0,1,25,19a22.08,22.08,0,0,1,2.22.18c.15,0,.24.42,0,.69a.75.75,0,0,1-.5.22,9.69,9.69,0,0,1-1,.09,10,10,0,0,0-6.49,2.33,8.88,8.88,0,0,0-2,2.63A14.49,14.49,0,0,0,16,28.89c0,.14-.06.28-.09.41-.23.89-1.45,1.3-2.53,1.33-1.35,0-2.7-.45-2.7-1.39a13.14,13.14,0,0,1,3.14-5.75A13.28,13.28,0,0,1,18.68,20.07Z"/><path class="cls-66" d="M18.71,20.07A15.59,15.59,0,0,1,25,19a19.24,19.24,0,0,1,2.21.17c.15,0,.24.43,0,.69a.73.73,0,0,1-.5.22c-.31,0-.64.07-1,.09a10,10,0,0,0-6.48,2.33,8.94,8.94,0,0,0-2,2.62A14.62,14.62,0,0,0,16,28.88c0,.14-.06.28-.1.42-.22.89-1.43,1.3-2.52,1.33-1.35,0-2.7-.45-2.7-1.39a13.66,13.66,0,0,1,8.06-9.17Z"/><path class="cls-67" d="M18.73,20.06A15.75,15.75,0,0,1,25,19a21.7,21.7,0,0,1,2.2.18c.15,0,.24.42,0,.69a.78.78,0,0,1-.5.21c-.32,0-.64.07-1,.08a10,10,0,0,0-6.47,2.34,9,9,0,0,0-2,2.62A14.62,14.62,0,0,0,16,28.88c0,.14-.06.28-.1.41-.22.89-1.42,1.31-2.52,1.34-1.34,0-2.7-.45-2.7-1.39a13.73,13.73,0,0,1,8.08-9.18Z"/><path class="cls-68" d="M18.75,20.06A15.49,15.49,0,0,1,25,19a19.08,19.08,0,0,1,2.2.17c.15,0,.23.43,0,.69a.78.78,0,0,1-.51.21l-1,.08a10,10,0,0,0-6.47,2.34,8.81,8.81,0,0,0-2,2.62A14.41,14.41,0,0,0,16,28.87l-.09.42c-.22.89-1.42,1.31-2.52,1.34-1.34,0-2.69-.45-2.69-1.39a13.65,13.65,0,0,1,8.09-9.18Z"/><path class="cls-69" d="M18.77,20.05A15.65,15.65,0,0,1,25,19a21.52,21.52,0,0,1,2.19.18c.15,0,.23.43,0,.69a.83.83,0,0,1-.51.2c-.32,0-.65.06-1,.07a10,10,0,0,0-6.46,2.35,9.1,9.1,0,0,0-2,2.61A14.67,14.67,0,0,0,16,28.86c0,.14-.06.28-.1.42-.21.89-1.4,1.31-2.51,1.34-1.34,0-2.69-.44-2.69-1.38a13.25,13.25,0,0,1,3.17-5.77A13.1,13.1,0,0,1,18.77,20.05Z"/><path class="cls-70" d="M18.79,20.05A15.61,15.61,0,0,1,25,19a21.23,21.23,0,0,1,2.18.17c.15,0,.23.43,0,.69a.76.76,0,0,1-.52.2l-1,.07a10,10,0,0,0-6.46,2.35,8.76,8.76,0,0,0-2,2.61A14.68,14.68,0,0,0,16,28.86l-.09.42c-.21.89-1.39,1.31-2.5,1.34-1.34,0-2.7-.45-2.7-1.38a13.69,13.69,0,0,1,8.13-9.19Z"/><path class="cls-71" d="M18.82,20A15.67,15.67,0,0,1,25,19a21.52,21.52,0,0,1,2.19.18c.14,0,.22.43-.06.69a.8.8,0,0,1-.52.19c-.33,0-.65.05-1,.06a10,10,0,0,0-6.45,2.36,8.76,8.76,0,0,0-2,2.61A14.47,14.47,0,0,0,16,28.85l-.09.42c-.21.9-1.38,1.32-2.5,1.35-1.34,0-2.7-.45-2.7-1.38a13.29,13.29,0,0,1,3.19-5.78A13.11,13.11,0,0,1,18.82,20Z"/><path class="cls-72" d="M18.84,20A15.45,15.45,0,0,1,25,19a21.23,21.23,0,0,1,2.18.17c.14,0,.22.44-.07.69a.8.8,0,0,1-.52.19l-1,.06a10,10,0,0,0-6.45,2.35,9.11,9.11,0,0,0-2,2.62,14.47,14.47,0,0,0-1.26,3.73l-.09.42c-.2.89-1.37,1.32-2.49,1.35-1.34,0-2.69-.45-2.69-1.38a13.29,13.29,0,0,1,3.19-5.79A13,13,0,0,1,18.84,20Z"/><path class="cls-73" d="M18.86,20A15.8,15.8,0,0,1,25,19a21.37,21.37,0,0,1,2.17.18c.14,0,.21.44-.07.69a.86.86,0,0,1-.53.18l-1,.05a10,10,0,0,0-6.43,2.36,8.89,8.89,0,0,0-2,2.61,14.6,14.6,0,0,0-1.26,3.73l-.09.42c-.19.9-1.36,1.33-2.49,1.36-1.33,0-2.69-.45-2.69-1.38a13.37,13.37,0,0,1,3.2-5.79A13.09,13.09,0,0,1,18.86,20Z"/><path class="cls-74" d="M18.88,20a15.55,15.55,0,0,1,6.14-1,21,21,0,0,1,2.17.17c.13,0,.21.44-.08.69a.83.83,0,0,1-.53.18l-1,.05a10,10,0,0,0-6.43,2.36,9.25,9.25,0,0,0-2,2.61,14.86,14.86,0,0,0-1.26,3.73l-.09.42c-.18.89-1.34,1.32-2.48,1.36-1.33,0-2.69-.45-2.69-1.38a13.33,13.33,0,0,1,3.21-5.8A13.11,13.11,0,0,1,18.88,20Z"/><path class="cls-75" d="M18.9,20a15.88,15.88,0,0,1,6.13-1,21,21,0,0,1,2.16.18c.13,0,.21.44-.09.69a.76.76,0,0,1-.53.17l-1,0a10,10,0,0,0-6.42,2.37,8.89,8.89,0,0,0-2,2.61,14.39,14.39,0,0,0-1.26,3.72l-.09.42c-.18.9-1.33,1.33-2.48,1.37-1.33,0-2.69-.45-2.69-1.38a13.41,13.41,0,0,1,3.22-5.8A13.14,13.14,0,0,1,18.9,20Z"/><path class="cls-76" d="M18.92,20a15.68,15.68,0,0,1,6.12-1,20.67,20.67,0,0,1,2.15.17c.13,0,.21.45-.09.69a.82.82,0,0,1-.55.17l-1,0a10,10,0,0,0-6.42,2.37,9.13,9.13,0,0,0-2,2.6,14.66,14.66,0,0,0-1.27,3.72c0,.14-.05.28-.08.43-.18.9-1.33,1.33-2.47,1.37-1.33,0-2.69-.45-2.69-1.38a13.35,13.35,0,0,1,3.22-5.81A13.16,13.16,0,0,1,18.92,20Z"/><path class="cls-77" d="M19,20a15.72,15.72,0,0,1,6.09-1,20.77,20.77,0,0,1,2.15.18c.13,0,.21.45-.1.69a.88.88,0,0,1-.55.16l-1,0a10,10,0,0,0-6.41,2.38,9,9,0,0,0-2,2.6,14.52,14.52,0,0,0-1.26,3.72l-.09.42c-.17.9-1.31,1.34-2.46,1.37-1.33,0-2.69-.44-2.69-1.37a13.43,13.43,0,0,1,3.23-5.81A13.18,13.18,0,0,1,19,20Z"/><path class="cls-78" d="M27.19,19.24A16.89,16.89,0,0,0,19,20a13.1,13.1,0,0,0-5,3.41,13.45,13.45,0,0,0-3.24,5.82c0,1.74,4.79,1.93,5.15,0a11.68,11.68,0,0,1,3.31-6.74c1.73-1.57,4.13-2.41,7.39-2.41C27.44,20.09,27.37,19.27,27.19,19.24Z"/></g><path class="cls-79" d="M19.8,11.12c-3.93,0-9.31,2.39-9.31,9.89v8.27c0,1.91,5.32,1.91,5.32,0V20.72c0-3.51,2.22-6.16,5.32-6.23,2.45-.06,4.43,1.19,4.43,4.75,0,.9,1.77.9,1.77,0C27.33,13.22,24,11.12,19.8,11.12Z"/></g></g></svg>