<svg xmlns="http://www.w3.org/2000/svg" viewBox="0 0 50 40"><defs><style>.cls-1{fill:#062a30;}</style></defs><title>logo-g8</title><g id="レイヤー_1" data-name="レイヤー 1"><polygon class="cls-1" points="22.16 21.83 8.49 21.81 8.42 30.85 17.88 30.85 17.88 28.51 11.01 28.51 11.01 24.2 22.16 24.2 22.16 35.16 4.18 35.16 4.18 17.46 22.16 17.46 22.16 21.83"/><path class="cls-1" d="M41.73,15.94a.58.58,0,0,1-.55.55H35.1v-.55h6.08v-.52H35.1V13.81h.55v1h5.53v-1h.55Z"/><path class="cls-1" d="M34.67,14.36h-5a.48.48,0,0,0-.52.49v1.64h-.56V13.81h.56V14c.13-.22.45-.17.54-.17h5Z"/><path class="cls-1" d="M27.92,14.36v.49a.58.58,0,0,1-.6.57H22.07v.52h5.85v.55H22.07a.56.56,0,0,1-.55-.55V14.36a.62.62,0,0,1,.55-.55h5.24A.57.57,0,0,1,27.92,14.36Zm-.59,0H22.07v.49h5.26Z"/><rect class="cls-1" x="20.38" y="13.14" width="0.57" height="3.35"/><rect class="cls-1" x="19.23" y="13.14" width="0.58" height="3.35"/><path class="cls-1" d="M15.82,12.59c-.83.13-1.9-.14-1.63-1.47l.86-3.56c.24-1.06,1.06-1.38,2.25-1.38Z"/><path class="cls-1" d="M18.94,9.41l-2,0,.73-3.18c1,0,1.85.23,1.69,1.33Z"/><path class="cls-1" d="M21.61,8.47c-.14.24-1.17,1-1.68.09a1.9,1.9,0,0,1,.45-2c.15-.28,1.41-.94,1.69.1A2.8,2.8,0,0,1,21.61,8.47Z"/><path class="cls-1" d="M19.37,10.23c.37-1.22,2.26-1.06,2.26-1.06s-.6,2.51-.6,2.48a1.81,1.81,0,0,1-1,.94c-.66.13-1.12-.23-1-.87C19,11.72,19.18,10.85,19.37,10.23Z"/><path class="cls-1" d="M21.5,11.16l1.18-5c.66-.09,2,.36,1.75,1.36,0,0-1.19,5.1-1.17,5C22.32,12.78,21.23,12.2,21.5,11.16Z"/><path class="cls-1" d="M24.06,11l1.66-7c.65,0,1.4.09,2.06.08,0,0-2,8.76-2,8.45C24.89,12.63,23.81,12.42,24.06,11Z"/><polygon class="cls-1" points="27.19 8.42 27.67 6.29 29.92 6.29 27.19 8.42"/><path class="cls-1" d="M30,7h2s-1.43,5.93-1.34,5.62c-1,.25-1.81-.29-1.71-1.22Z"/><path class="cls-1" d="M32.05,6.19a.9.9,0,0,1-1,.62c-.56,0-1-.2-.83-1a6.85,6.85,0,0,1,.27-1.12,1.16,1.16,0,0,1,1.22-.58.77.77,0,0,1,.73.79A5,5,0,0,1,32.05,6.19Z"/><path class="cls-1" d="M32.51,7.46c.33-1.58,1.9-1.33,2.23-1.33l-1.51,6.46c-.93,0-1.77-.47-1.51-1.57Z"/><path class="cls-1" d="M35.14,6.09c1.42,0,1.66.73,1.63,1.47L36,11.12a2,2,0,0,1-2.31,1.47Z"/><polygon class="cls-1" points="37.73 6.29 39.76 6.29 38.2 12.59 36.23 12.61 37.73 6.29"/><path class="cls-1" d="M40.12,6.25s2.16-.17,1.76,1.63l-1.16,4.74c-.72.08-2-.32-1.82-1.36Z"/><path class="cls-1" d="M14.25,8.28c-.09.35-1.29,1.29-1.91.13a4,4,0,0,1,.36-1.69c.23-.52,1-.59,1.38-.52a.76.76,0,0,1,.5.89Z"/><path class="cls-1" d="M10.88,12.59c-.8,0-1.93-.19-1.69-1.41l1.11-5h2Z"/><path class="cls-1" d="M8,6.22,8.46,4c.79,0,1.5.21,1.68.93A2.77,2.77,0,0,1,10,6.23Z"/><path class="cls-1" d="M6.05,12.57c-.84.19-2.21-.17-2-1.3L5.35,5.64A2.38,2.38,0,0,1,8.05,4Z"/><path class="cls-1" d="M4.83,15.84h6.05v-.68H5.49v-.65h6v2H4.83a.61.61,0,0,1-.65-.65v-2a.64.64,0,0,1,.65-.67h6.69v.67H4.83Z"/><path class="cls-1" d="M18.66,14.36v2.13h-6a.55.55,0,0,1-.53-.55v-.52a.6.6,0,0,1,.57-.57H18.1v-.49h-6v-.55h6A.53.53,0,0,1,18.66,14.36Zm-.56,1.06H12.68v.52H18.1Z"/><path class="cls-1" d="M40.08,24.2h1.65v11H23.85v-11h1.49V17.46H40.08Zm-4.34-2.31H29.68V24.2h6.06Zm1.68,6.62H28.19v2.34h9.23Z"/></g></svg>