<svg xmlns="http://www.w3.org/2000/svg" viewBox="0 0 320 80"><defs><style>.cls-1{isolation:isolate;}.cls-2,.cls-4{fill:#ff40b4;mix-blend-mode:hard-light;}.cls-2{opacity:0.5;}.cls-3{fill:#062a30;}.cls-4{opacity:0.8;}</style></defs><title>title-name</title><g class="cls-1"><g id="レイヤー_1" data-name="レイヤー 1"><rect class="cls-2" x="89.63" y="16.4" width="170.93" height="7.85"/><rect class="cls-2" x="89.63" y="56.77" width="170.93" height="7.85"/><rect class="cls-2" x="59.43" y="36.56" width="170.93" height="7.85"/><path class="cls-3" d="M183.3,13.09l-3.67,14.46h.69l.67-2.64h5.27l.67,2.64h.69L184,13.09Zm2.79,11.15h-4.93l2.47-9.78Z"/><path class="cls-3" d="M214.87,27.55l.67-2.64h5.27l.67,2.64h.69L218.5,13.09h-.65l-3.67,14.46Zm.84-3.31,2.46-9.78,2.47,9.78Z"/><path class="cls-3" d="M234.39,27.55l.67-2.64h5.27l.67,2.64h.69L238,13.09h-.65L233.7,27.55Zm.84-3.31,2.47-9.78,2.46,9.78Z"/><rect class="cls-3" x="198.42" y="13.09" width="0.67" height="14.46"/><rect class="cls-3" x="244.44" y="13.09" width="0.67" height="14.46"/><polygon class="cls-3" points="195.38 13.09 194.6 13.09 190.56 19.8 190.56 13.09 189.89 13.09 189.89 27.55 190.56 27.55 190.56 22.04 194.58 27.55 195.41 27.55 190.63 20.99 195.38 13.09"/><polygon class="cls-3" points="212.45 13.09 211.67 13.09 207.63 19.8 207.63 13.09 206.96 13.09 206.96 27.55 207.63 27.55 207.63 22.04 211.64 27.55 212.47 27.55 207.7 20.99 212.45 13.09"/><polygon class="cls-3" points="230.86 13.09 230.86 26.1 224.83 13.09 224.03 13.09 224.03 27.55 224.7 27.55 224.7 14.39 230.8 27.55 231.53 27.55 231.53 13.09 230.86 13.09"/><path class="cls-3" d="M92.35,47.71H93L89.38,33.32h-.65L85.08,47.71h.69l.66-2.63h5.25ZM86.6,44.42l2.46-9.74,2.45,9.74Z"/><path class="cls-3" d="M140.31,47.71l.67-2.63h5.25l.66,2.63h.69l-3.66-14.39h-.64l-3.66,14.39Zm.83-3.29,2.46-9.74,2.46,9.74Z"/><path class="cls-3" d="M159.46,47.71l.66-2.63h5.25l.66,2.63h.69l-3.65-14.39h-.65l-3.65,14.39Zm.83-3.29,2.45-9.74,2.46,9.74Z"/><path class="cls-3" d="M103.12,47.71l.67-2.63H109l.66,2.63h.69l-3.65-14.39h-.65l-3.65,14.39Zm.84-3.29,2.45-9.74,2.46,9.74Z"/><polygon class="cls-3" points="130.99 47.72 130.99 41.18 137.13 41.18 137.13 47.72 137.8 47.72 137.8 33.31 137.13 33.31 137.13 40.52 130.99 40.52 130.99 33.31 130.32 33.31 130.32 47.72 130.99 47.72"/><path class="cls-3" d="M179,47.71l.67-2.63H185l.66,2.63h.69l-3.65-14.39H182l-3.65,14.39Zm.84-3.29,2.45-9.74,2.46,9.74Z"/><path class="cls-3" d="M197,47.71l.67-2.63h5.25l.66,2.63h.69l-3.65-14.39H200l-3.65,14.39Zm.84-3.29,2.45-9.74,2.46,9.74Z"/><polygon class="cls-3" points="169.57 47.72 169.57 41.18 175.7 41.18 175.7 47.72 176.37 47.72 176.37 33.31 175.7 33.31 175.7 40.52 169.57 40.52 169.57 33.31 168.9 33.31 168.9 47.72 169.57 47.72"/><rect class="cls-3" x="120.7" y="33.32" width="0.67" height="14.4"/><polygon class="cls-3" points="82.35 33.31 82.35 33.32 78.19 43.57 74.03 33.32 74.03 33.31 73.36 33.31 73.36 47.72 74.03 47.72 74.03 35.09 77.92 44.69 78.46 44.69 82.35 35.09 82.35 47.72 83.02 47.72 83.02 33.31 82.35 33.31"/><polygon class="cls-3" points="118.06 47.72 113.3 41.18 118.04 33.32 117.26 33.31 113.24 39.99 113.24 33.31 112.57 33.31 112.57 47.72 113.24 47.72 113.24 42.23 117.23 47.72 118.06 47.72"/><path class="cls-3" d="M100.3,46.52c1-1.39.68-3.22-.77-4.91l-1.14-1.27c-.88-1-1.88-2.05-2.52-2.91a2.54,2.54,0,0,1-.19-2.85,2.15,2.15,0,0,1,2.48-.69,3.42,3.42,0,0,1,1.64,1l.48-.47a4.14,4.14,0,0,0-2-1.13,2.8,2.8,0,0,0-3.2,1,3.21,3.21,0,0,0,.22,3.62c.65.88,1.66,2,2.55,3,.43.46.83.9,1.13,1.25,1.24,1.44,1.52,3,.74,4.08a3,3,0,0,1-3.5.9,4.63,4.63,0,0,1-1.54-1l-.46.49A5.24,5.24,0,0,0,96,47.65a4.13,4.13,0,0,0,1.45.27A3.41,3.41,0,0,0,100.3,46.52Z"/><path class="cls-3" d="M195.06,47.69l-4.8-6.56H191a3.91,3.91,0,1,0,0-7.81h-2.23V47.69h.66V41.14l4.8,6.55Zm-5.63-7.22V34H191a3.25,3.25,0,0,1,0,6.49Z"/><polygon class="cls-3" points="156.78 47.72 156.78 33.31 156.11 33.31 156.11 46.27 150.11 33.31 149.31 33.31 149.31 47.72 149.98 47.72 149.98 34.61 156.05 47.72 156.78 47.72"/><path class="cls-3" d="M112,67.94l.66-2.64H118l.66,2.64h.7l-3.67-14.46H115l-3.67,14.46Zm.83-3.32,2.47-9.77,2.47,9.77Z"/><path class="cls-3" d="M151.71,67.94l.67-2.64h5.27l.67,2.64H159l-3.67-14.46h-.65L151,67.94Zm.84-3.32L155,54.85l2.47,9.77Z"/><polygon class="cls-3" points="148.24 53.48 148.24 53.48 144.07 63.77 139.89 53.48 139.89 53.48 139.22 53.48 139.22 67.94 139.89 67.94 139.89 55.26 143.8 64.9 144.33 64.9 148.24 55.26 148.24 67.94 148.91 67.94 148.91 53.48 148.24 53.48"/><polygon class="cls-3" points="111.25 53.48 103.74 53.48 103.74 54.15 107.16 54.15 107.16 67.94 107.83 67.94 107.83 54.15 111.25 54.15 111.25 53.48"/><polygon class="cls-3" points="121.69 53.48 121.69 67.94 122.36 67.94 122.36 62.42 126.37 67.94 127.2 67.94 122.43 61.38 127.18 53.48 126.4 53.48 122.36 60.19 122.36 53.48 121.69 53.48"/><path class="cls-3" d="M136.58,64.84V53.5h-.67V64.84a2.64,2.64,0,0,1-5.27,0V53.5H130V64.84a3.31,3.31,0,1,0,6.61,0Z"/><path class="cls-3" d="M233.86,67.94l.66-2.64h5.28l.66,2.64h.7l-3.67-14.46h-.66l-3.66,14.46Zm.83-3.32,2.47-9.77,2.47,9.77Z"/><path class="cls-3" d="M209.77,67.94l.67-2.64h5.27l.67,2.64h.69L213.4,53.48h-.65l-3.67,14.46Zm.84-3.32,2.46-9.77,2.47,9.77Z"/><polygon class="cls-3" points="171.03 61.36 171.03 60.69 167.64 60.69 167.64 54.15 171.56 54.15 171.56 53.48 166.97 53.48 166.97 67.94 167.64 67.94 167.64 61.36 171.03 61.36"/><polygon class="cls-3" points="189.37 67.94 184.59 61.38 189.34 53.48 188.56 53.48 184.52 60.19 184.52 53.48 183.85 53.48 183.85 67.94 184.52 67.94 184.52 62.42 188.54 67.94 189.37 67.94"/><polygon class="cls-3" points="229.03 68.02 232.7 53.48 232.01 53.48 228.71 66.57 225.42 53.54 225.43 53.48 225.4 53.48 224.74 53.48 224.71 53.48 224.73 53.54 221.44 66.57 218.14 53.48 217.44 53.48 221.11 68.02 221.76 68.02 225.07 54.91 228.38 68.02 229.03 68.02"/><path class="cls-3" d="M180.44,64.82V53.48h-.68V64.82a2.63,2.63,0,0,1-5.26,0V53.48h-.67V64.82a3.31,3.31,0,0,0,6.61,0Z"/><path class="cls-3" d="M198.53,64.82V53.48h-.67V64.82a2.64,2.64,0,0,1-5.27,0V53.48h-.67V64.82a3.31,3.31,0,0,0,6.61,0Z"/><polygon class="cls-3" points="201.2 54.15 206.63 54.15 201.08 67.26 201.08 67.93 207.24 67.93 207.24 67.26 201.81 67.26 207.36 54.15 207.36 53.48 206.91 53.48 206.91 53.48 206.91 53.48 201.2 53.48 201.2 54.15"/><rect class="cls-4" x="89.63" y="56.77" width="170.93" height="7.85"/><rect class="cls-4" x="59.43" y="36.56" width="170.93" height="7.85"/><rect class="cls-4" x="89.63" y="16.4" width="170.93" height="7.85"/></g></g></svg>