<?xml version="1.0" encoding="utf-8"?>
<!-- Generator: Adobe Illustrator 21.1.0, SVG Export Plug-In . SVG Version: 6.00 Build 0)  -->
<svg version="1.1" id="レイヤー_1" xmlns="http://www.w3.org/2000/svg" xmlns:xlink="http://www.w3.org/1999/xlink" x="0px"
	 y="0px" width="320px" height="190px" viewBox="0 0 320 190" style="enable-background:new 0 0 320 190;" xml:space="preserve">
<style type="text/css">
	.st0{fill:#062A30;}
</style>
<title>title</title>
<g id="レイヤー_1_1_">
	<path class="st0" d="M196.3,159.9v-4.2h-2.1v0.7h1.4v3.5c0,1.5-1.2,2.6-2.6,2.7c-1.5,0-2.7-1.2-2.7-2.7l0,0v-8.3
		c0-1.5,1.2-2.6,2.7-2.6c1.5,0,2.6,1.2,2.6,2.6h0.7c0.1-1.8-1.3-3.4-3.1-3.5c-1.8-0.1-3.4,1.3-3.5,3.1c0,0.1,0,0.2,0,0.4v8.3
		c-0.1,1.8,1.3,3.4,3.1,3.5c1.8,0.1,3.4-1.3,3.5-3.1C196.3,160.1,196.3,160,196.3,159.9z"/>
	<path class="st0" d="M163.1,162.9c1.8,0,3.2-1.4,3.2-3.2v-8c0-1.8-1.5-3.2-3.2-3.2H160v14.5L163.1,162.9z M160.7,162.2v-13.1h2.5
		c1.4,0,2.6,1.1,2.6,2.6l0,0v8c0,1.4-1.1,2.6-2.6,2.6l0,0L160.7,162.2z"/>
	<polygon class="st0" points="173.6,148.4 169.1,148.4 169.1,162.9 173.6,162.9 173.6,162.2 169.7,162.2 169.7,156.3 173.1,156.3 
		173.1,155.7 169.7,155.7 169.7,149.1 173.6,149.1 	"/>
	<polygon class="st0" points="214.6,162.9 214.6,162.2 210.7,162.2 210.7,156.3 214.1,156.3 214.1,155.7 210.7,155.7 210.7,149.1 
		214.6,149.1 214.6,148.4 210,148.4 210,162.9 	"/>
	<rect x="185.3" y="148.4" class="st0" width="0.7" height="14.5"/>
	<path class="st0" d="M181.9,161.7c1-1.4,0.7-3.2-0.8-4.9c-0.3-0.4-0.7-0.8-1.1-1.3c-0.9-0.9-1.7-1.9-2.5-2.9
		c-0.6-0.8-0.7-2-0.2-2.9c0.6-0.8,1.6-1,2.5-0.7c0.6,0.2,1.2,0.5,1.7,1l0.5-0.5c-0.5-0.6-1.2-1-2-1.1c-1.2-0.4-2.5,0-3.2,1
		c-0.7,1.1-0.6,2.6,0.2,3.6c0.6,0.9,1.7,2,2.6,3c0.4,0.5,0.8,0.9,1.1,1.3c1.2,1.4,1.5,3,0.7,4.1c-0.8,1.1-2.3,1.4-3.5,0.9
		c-0.6-0.2-1.1-0.6-1.6-1l-0.5,0.5c0.5,0.5,1.1,0.9,1.8,1.1c0.5,0.2,1,0.3,1.4,0.3C180.2,163.2,181.3,162.7,181.9,161.7z"/>
	<path class="st0" d="M217.7,162.9v-6.5l4.8,6.6h0.8l-4.8-6.6h0.8c2.2,0,3.9-1.8,3.9-3.9c0-2.2-1.8-3.9-3.9-3.9h-2.2V163
		L217.7,162.9z M217.7,155.7v-6.5h1.6c1.8,0,3.3,1.5,3.3,3.3c0,1.8-1.5,3.3-3.3,3.3H217.7z"/>
	<polygon class="st0" points="206.9,162.9 206.9,148.5 206.2,148.5 206.2,161.5 200.2,148.5 199.4,148.5 199.4,162.9 200.1,162.9 
		200.1,149.8 206.2,162.9 	"/>
	<polygon class="st0" points="135.9,148.5 131.4,148.5 131.3,148.5 131.3,162.9 131.4,162.9 135.9,162.9 135.9,162.9 135.9,162.3 
		135.9,162.3 132,162.3 132,162.3 132,156.4 132,156.4 135.4,156.4 135.4,156.4 135.4,155.7 135.4,155.7 132,155.7 132,155.7 
		132,149.2 132,149.1 135.9,149.1 135.9,149.1 135.9,148.5 	"/>
	<path class="st0" d="M127.9,148.5v13l0,0l-6-13h-0.8v14.5h0.7v-13.1l0,0l6.1,13.1h0.7v-14.5H127.9L127.9,148.5z"/>
	<path class="st0" d="M152.2,148.5l-3.3,13.1l0,0l-3.3-13v-0.1h-0.7v0.1l-3.3,13l0,0l-3.3-13.1h-0.7l3.7,14.5h0.7l3.3-13.1l0,0
		l3.3,13.1h0.7l3.7-14.5H152.2L152.2,148.5z"/>
	<path class="st0" d="M76.9,159.8v-11.4h-0.7v11.4c0,1.5-1.2,2.6-2.6,2.6c-0.4,0-0.9-0.1-1.3-0.3l0,0l-0.3,0.6l0,0
		c0.5,0.3,1,0.4,1.6,0.4C75.4,163.1,76.9,161.7,76.9,159.8z"/>
	<path class="st0" d="M104.5,151.7c0-1.8-1.4-3.2-3.2-3.2h-3.1v14.4h3.2c1.8,0,3.2-1.4,3.2-3.2L104.5,151.7z M101.3,162.3h-2.5
		v-13.1h2.5c1.4,0,2.6,1.1,2.6,2.6v8C103.8,161.1,102.7,162.3,101.3,162.3L101.3,162.3z"/>
	<path class="st0" d="M86.1,162.9h0.7l-3.7-14.5h-0.7l-3.7,14.5h0.7l0.7-2.6h5.3C85.5,160.3,86.1,162.9,86.1,162.9z M80.3,159.6
		l2.5-9.8l0,0l2.5,9.8H80.3z"/>
	<path class="st0" d="M106.7,162.9l0.7-2.6h5.3l0.7,2.6h0.7l-3.7-14.5h-0.7l-3.7,14.5H106.7L106.7,162.9z M107.6,159.6l2.5-9.8l0,0
		l2.5,9.8H107.6L107.6,159.6z"/>
	<path class="st0" d="M95.3,159.9v-4.2h-2.1v0.7h1.4v3.5c0,1.4-1.1,2.6-2.6,2.7c-1.5,0.1-2.7-1.1-2.7-2.5c0,0,0-0.1,0-0.1v-8.2
		c0-1.4,1.1-2.6,2.6-2.7c1.5,0,2.7,1.1,2.7,2.6c0,0,0,0,0,0.1h0.7c0-1.8-1.5-3.3-3.4-3.3c0,0-0.1,0-0.1,0c-1.8,0.1-3.2,1.6-3.2,3.4
		v8.1c0,1.8,1.4,3.3,3.2,3.4c1.8,0.1,3.4-1.4,3.4-3.2C95.3,160,95.3,159.9,95.3,159.9z"/>
	<path class="st0" d="M158.1,180.1v-8c0-1.8-1.5-3.2-3.2-3.2h-3.2v14.5h3.2C156.6,183.4,158.1,181.9,158.1,180.1
		C158.1,180.1,158.1,180.1,158.1,180.1z M152.3,182.7v-13.1h2.5c1.4,0,2.5,1.1,2.6,2.5v8c0,1.4-1.1,2.6-2.6,2.6l0,0L152.3,182.7z"/>
	<path class="st0" d="M114.2,168.9l-3.7,14.5h0.7l0.7-2.6h5.3l0.7,2.6h0.7l-3.7-14.5H114.2z M117,180h-4.9l2.5-9.8L117,180z"/>
	<path class="st0" d="M136.8,168.9l-3.7,14.5h0.7l0.7-2.6h5.3l0.7,2.6h0.7l-3.7-14.5H136.8z M139.6,180h-4.9l2.5-9.8L139.6,180z"/>
	<path class="st0" d="M166.1,182.1c1-1.4,0.7-3.2-0.8-4.9c-0.3-0.4-0.7-0.8-1.1-1.3c-0.9-1-1.9-2.1-2.5-2.9c-0.6-0.8-0.7-2-0.2-2.9
		c0.6-0.8,1.6-1.1,2.5-0.7c0.6,0.2,1.2,0.5,1.6,0.9l0.5-0.5c-0.5-0.6-1.2-1-2-1.1c-1.2-0.4-2.5,0-3.2,1c-0.7,1.1-0.6,2.6,0.2,3.6
		c0.7,0.9,1.7,2,2.6,3c0.4,0.5,0.8,0.9,1.1,1.3c1.2,1.4,1.5,3,0.7,4.1c-0.8,1.1-2.3,1.4-3.5,0.9c-0.6-0.2-1.1-0.6-1.6-1l-0.5,0.5
		c0.5,0.5,1.1,0.9,1.8,1.1c0.5,0.2,1,0.3,1.4,0.3C164.4,183.6,165.5,183.1,166.1,182.1z"/>
	<path class="st0" d="M149.3,183.4l-4.8-6.6h0.8c2.2,0,3.9-1.8,3.9-3.9c0-2.2-1.8-3.9-3.9-3.9H143v14.4h0.7v-6.6l4.8,6.6H149.3z
		 M143.7,176.1v-6.5h1.6c1.8,0,3.3,1.5,3.3,3.3c0,1.8-1.5,3.3-3.3,3.3H143.7z"/>
	<polygon class="st0" points="132.6,168.9 129.3,182 126,168.9 126,168.9 126,168.9 125.3,168.9 125.3,168.9 125.3,168.9 122,182 
		118.7,168.9 118,168.9 121.7,183.4 122.4,183.4 125.7,170.3 129,183.4 129.6,183.4 133.3,168.9 	"/>
	<path class="st0" d="M206.8,168.9v14.4h2.2c2.2,0,3.9-1.7,3.9-3.9c0-1.7-1.1-3.3-2.8-3.8c1-0.7,1.7-1.9,1.6-3.1
		c0-2-1.6-3.6-3.6-3.6l0,0H206.8z M209.1,176.1c1.8,0,3.2,1.5,3.2,3.2s-1.5,3.2-3.2,3.2h-1.6v-6.5H209.1z M208.3,169.5
		c1.6,0,2.9,1.3,2.9,2.9l0,0c0.1,1.6-1.1,2.9-2.7,2.9h-1v-5.9H208.3z"/>
	<polygon class="st0" points="174.8,182.6 174.8,176.7 178.2,176.7 178.2,176 174.8,176 174.8,169.5 178.8,169.5 178.8,168.9 
		174.2,168.9 174.2,183.3 178.8,183.3 178.8,182.6 	"/>
	<polygon class="st0" points="191.5,168.9 190.8,168.9 190.8,183.3 191.5,183.3 191.5,176.7 197.6,176.7 197.6,183.3 198.3,183.3 
		198.3,168.9 197.6,168.9 197.6,176.1 191.5,176.1 	"/>
	<rect x="215.9" y="168.9" class="st0" width="0.7" height="14.4"/>
	<rect x="202" y="168.9" class="st0" width="0.7" height="14.4"/>
	<rect x="228.9" y="168.9" class="st0" width="0.7" height="14.4"/>
	<path class="st0" d="M240,180.2V172c0.1-1.8-1.3-3.4-3.1-3.5c-1.8-0.1-3.4,1.3-3.5,3.1c0,0.1,0,0.2,0,0.4v8.3
		c-0.1,1.8,1.3,3.4,3.1,3.5c1.8,0.1,3.4-1.3,3.5-3.1C240,180.5,240,180.4,240,180.2z M234.1,180.2V172c-0.1-1.5,1-2.7,2.5-2.8
		c1.5-0.1,2.7,1,2.8,2.5c0,0.1,0,0.2,0,0.3v8.3c0.1,1.5-1,2.7-2.5,2.8c-1.5,0.1-2.7-1-2.8-2.5C234.1,180.5,234.1,180.3,234.1,180.2z
		"/>
	<polygon class="st0" points="187.6,168.9 186.9,168.9 184.4,175.1 182.1,168.9 181.3,168.9 184.1,176.1 181.3,183.3 182.1,183.3 
		184.4,177.1 186.9,183.3 187.6,183.3 184.8,176.1 	"/>
	<polygon class="st0" points="226.4,168.9 218.9,168.9 218.9,169.5 222.4,169.5 222.4,183.3 223,183.3 223,169.5 226.4,169.5 	"/>
	<polygon class="st0" points="243.7,183.3 243.7,170.2 249.8,183.3 250.5,183.3 250.5,168.9 249.8,168.9 249.8,181.8 243.8,168.9 
		243,168.9 243,183.3 	"/>
</g>
</svg>
