<svg xmlns="http://www.w3.org/2000/svg" viewBox="0 0 80 40"><defs><style>.cls-1{fill:#002830;}</style></defs><title>logo-jagda</title><g id="レイヤー_1" data-name="レイヤー 1"><path class="cls-1" d="M21.24,18.16,17,30.85h2.65l.79-2.66H25l.79,2.66h2.66L24.2,18.16Zm-.23,8,1.71-5.68,1.71,5.68Z"/><path class="cls-1" d="M12.25,26.92A2.06,2.06,0,0,1,9.91,29c-1.7,0-2.32-1.53-2.32-3.65H5c0,2.87.61,5.81,5.1,5.81,2.66,0,4.93-1.54,4.93-4.07v-9H12.25Z"/><path class="cls-1" d="M71.73,18.16h-3L64.5,30.85h2.66l.8-2.66h4.59l.79,2.66H76Zm-3.19,8,1.71-5.68L72,26.18Z"/><path class="cls-1" d="M57.67,18.16H53.85V30.84h3.82c4.48,0,5.82-3.3,5.82-6.27S62.23,18.16,57.67,18.16Zm-.45,10.58h-.84V20.26h.84c1.5,0,3.66.33,3.66,4.31S59,28.74,57.22,28.74Z"/><path class="cls-1" d="M50.63,24.5A10.15,10.15,0,1,1,40.48,14.35,10.14,10.14,0,0,1,50.63,24.5Zm-10-4.26c-5.5,0-10,1.9-10,4.26S35.17,29,40.67,29c4.49,0,8.28-1.35,9.52-3.17l-9.43-2.23-2.52.81,7.69,1.86a16.7,16.7,0,0,1-5.26.7c-4,0-7.25-1.35-7.25-2.67s3.24-2.4,7.25-2.4h0c3.22,0,5.83.63,7.1,1.66L50,22.81C48,20.87,43.6,20.24,40.67,20.24Z"/></g></svg>