<?xml version="1.0" encoding="utf-8"?>
<!-- Generator: Adobe Illustrator 21.1.0, SVG Export Plug-In . SVG Version: 6.00 Build 0)  -->
<svg version="1.1" id="レイヤー_1" xmlns="http://www.w3.org/2000/svg" xmlns:xlink="http://www.w3.org/1999/xlink" x="0px"
	 y="0px" width="320px" height="80px" viewBox="0 0 320 80" style="enable-background:new 0 0 320 80;" xml:space="preserve">
<style type="text/css">
	.st0{fill:#092A30;}
</style>
<g>
	<g>
		<path class="st0" d="M227.7,45.138v-1.057c0-1.398-1.137-2.535-2.535-2.535c-1.398,0-2.535,1.137-2.535,2.535v1.057
			c0,0.978,0.557,1.828,1.371,2.251c-0.813,0.423-1.371,1.272-1.371,2.251v1.967c0,1.398,1.137,2.535,2.535,2.535
			c1.398,0,2.535-1.137,2.535-2.535v-1.967c0-0.978-0.557-1.828-1.371-2.251C227.143,46.966,227.7,46.116,227.7,45.138z
			 M227.131,49.639v1.967c0,1.084-0.882,1.966-1.966,1.966c-1.084,0-1.966-0.882-1.966-1.966v-1.967
			c0-1.084,0.882-1.966,1.966-1.966C226.249,47.673,227.131,48.555,227.131,49.639z M225.165,47.105
			c-1.084,0-1.966-0.882-1.966-1.966v-1.057c0-1.084,0.882-1.966,1.966-1.966c1.084,0,1.966,0.882,1.966,1.966v1.057
			C227.131,46.222,226.249,47.105,225.165,47.105z"/>
		<path class="st0" d="M107.815,51.398c0,1.552-1.262,2.814-2.814,2.814c-1.552,0-2.814-1.262-2.814-2.814V44.36
			c0-1.552,1.262-2.814,2.814-2.814c1.552,0,2.814,1.262,2.814,2.814h-0.569c0-1.238-1.007-2.246-2.246-2.246
			c-1.238,0-2.245,1.007-2.245,2.246v7.038c0,1.238,1.007,2.245,2.245,2.245c1.238,0,2.246-1.007,2.246-2.245v-0.34h0.569V51.398z"
			/>
		<path class="st0" d="M127.23,41.734h-0.551l-3.109,12.251h0.586l0.565-2.239h4.466l0.565,2.239h0.587L127.23,41.734z
			 M124.864,51.177l2.09-8.281l2.09,8.281H124.864z"/>
		<path class="st0" d="M174.67,41.734h-0.551l-3.109,12.251h0.586l0.565-2.239h4.466l0.565,2.239h0.587L174.67,41.734z
			 M172.305,51.177l2.09-8.281l2.09,8.281H172.305z"/>
		<polygon class="st0" points="122.119,42.303 122.119,41.734 118.226,41.734 118.226,53.983 122.119,53.983 122.119,53.414 
			118.794,53.414 118.794,48.408 121.664,48.408 121.664,47.84 118.794,47.84 118.794,42.303 		"/>
		<polygon class="st0" points="195.374,42.303 195.374,41.734 191.481,41.734 191.481,53.983 195.374,53.983 195.374,53.414 
			192.049,53.414 192.049,48.408 194.919,48.408 194.919,47.84 192.049,47.84 192.049,42.303 		"/>
		<path class="st0" d="M169.172,47.84L169.172,47.84L169.172,47.84h-1.763v0.569h1.194v2.989c0,1.238-1.007,2.245-2.246,2.245
			s-2.245-1.007-2.245-2.245V44.36c0-1.238,1.007-2.246,2.245-2.246s2.246,1.007,2.246,2.246h0.569c0-1.552-1.262-2.814-2.814-2.814
			c-1.552,0-2.814,1.262-2.814,2.814v7.038c0,1.552,1.262,2.814,2.814,2.814c1.552,0,2.814-1.262,2.814-2.814L169.172,47.84z"/>
		<path class="st0" d="M220.357,47.84L220.357,47.84L220.357,47.84h-1.763v0.569h1.194v2.989c0,1.238-1.007,2.245-2.246,2.245
			c-1.238,0-2.245-1.007-2.245-2.245V44.36c0-1.238,1.007-2.246,2.245-2.246c1.238,0,2.246,1.007,2.246,2.246h0.569
			c0-1.552-1.262-2.814-2.814-2.814c-1.552,0-2.814,1.262-2.814,2.814v7.038c0,1.552,1.262,2.814,2.814,2.814
			c1.552,0,2.814-1.262,2.814-2.814L220.357,47.84z"/>
		<rect x="138.423" y="41.734" class="st0" width="0.569" height="12.251"/>
		<polygon class="st0" points="185.779,41.734 185.779,53.983 189.672,53.983 189.672,53.414 186.348,53.414 186.348,41.734 		"/>
		<polygon class="st0" points="179.833,41.734 179.833,53.983 183.726,53.983 183.726,53.414 180.401,53.414 180.401,41.734 		"/>
		<path class="st0" d="M145.157,54.188c-1.552,0-2.814-1.262-2.814-2.814v-7.037c0-1.552,1.262-2.814,2.814-2.814
			c1.552,0,2.814,1.262,2.814,2.814v7.037C147.971,52.925,146.709,54.188,145.157,54.188z M145.157,42.09
			c-1.238,0-2.245,1.007-2.245,2.246v7.037c0,1.238,1.007,2.245,2.245,2.245c1.238,0,2.246-1.007,2.246-2.245v-7.037
			C147.403,43.098,146.395,42.09,145.157,42.09z"/>
		<path class="st0" d="M115.747,53.96l-4.081-5.576h0.633c1.834,0,3.326-1.492,3.326-3.326c0-1.834-1.492-3.326-3.326-3.326h-1.903
			V53.96h0.569v-5.572l4.078,5.572H115.747z M110.965,42.3h1.335c1.521,0,2.757,1.237,2.757,2.758c0,1.521-1.237,2.758-2.757,2.758
			h-1.335V42.3z"/>
		<path class="st0" d="M203.122,53.96l-4.081-5.576h0.633c1.834,0,3.326-1.492,3.326-3.326c0-1.834-1.492-3.326-3.326-3.326h-1.903
			V53.96h0.569v-5.572l4.078,5.572H203.122z M198.34,42.3h1.335c1.52,0,2.758,1.237,2.758,2.758c0,1.521-1.237,2.758-2.758,2.758
			h-1.335V42.3z"/>
		<polygon class="st0" points="156.601,41.71 156.601,52.734 151.491,41.71 150.811,41.71 150.811,53.96 151.38,53.96 
			151.38,42.814 156.546,53.96 157.169,53.96 157.169,41.71 		"/>
		<polygon class="st0" points="136.622,41.734 130.264,41.734 130.264,42.303 133.159,42.303 133.159,53.985 133.728,53.985 
			133.728,42.303 136.622,42.303 		"/>
		<polygon class="st0" points="210.249,41.769 209.637,41.769 207.313,47.552 204.989,41.769 204.376,41.769 207.044,48.409 
			207.033,54.02 207.601,54.02 207.613,48.329 		"/>
	</g>
	<g>
		<polygon class="st0" points="157.457,24.855 157.457,25.148 163.472,25.148 163.472,26.639 163.765,26.639 163.765,23.365 
			163.472,23.365 163.472,24.855 		"/>
		<polygon class="st0" points="207.203,25.534 207.203,25.827 213.218,25.827 213.218,27.317 213.511,27.317 213.511,24.044 
			213.218,24.044 213.218,25.534 		"/>
		<rect x="166.634" y="29.67" class="st0" width="7.505" height="0.571"/>
		<polygon class="st0" points="163.858,27.546 157.55,27.546 157.55,27.838 160.411,27.838 160.411,30.527 157.55,30.527 
			157.55,30.819 163.858,30.819 163.858,30.527 160.703,30.527 160.703,27.838 163.858,27.838 		"/>
		<path class="st0" d="M163.746,32.192H158.8c-0.795,0-1.441,0.647-1.441,1.441s0.647,1.441,1.441,1.441h4.946v-0.293H158.8
			c-0.633,0-1.149-0.515-1.149-1.149c0-0.633,0.515-1.149,1.149-1.149h4.946V32.192z"/>
		<polygon class="st0" points="207.589,34.396 207.589,32.684 210.167,32.684 210.167,34.161 210.46,34.161 210.46,32.684 
			213.311,32.684 213.311,34.396 213.604,34.396 213.604,32.391 207.297,32.391 207.297,34.396 		"/>
		<path class="st0" d="M207.105,29.601c0,0.795,0.647,1.441,1.441,1.441h4.946v-0.293h-4.946c-0.633,0-1.149-0.515-1.149-1.149
			s0.515-1.149,1.149-1.149h4.946v-0.293h-4.946C207.751,28.159,207.105,28.806,207.105,29.601z"/>
		<path class="st0" d="M115.919,33.511v-1.976c0-0.983-0.56-1.837-1.378-2.262c0.817-0.424,1.378-1.279,1.378-2.262v-1.062
			c0-1.405-1.143-2.547-2.547-2.547c-1.405,0-2.547,1.143-2.547,2.547v1.062c0,0.983,0.56,1.837,1.378,2.262
			c-0.817,0.425-1.378,1.279-1.378,2.262v1.976c0,1.405,1.143,2.547,2.547,2.547C114.777,36.059,115.919,34.916,115.919,33.511z
			 M111.396,27.012v-1.062c0-1.089,0.886-1.976,1.976-1.976c1.089,0,1.976,0.886,1.976,1.976v1.062c0,1.09-0.886,1.976-1.976,1.976
			C112.283,28.988,111.396,28.101,111.396,27.012z M111.396,33.511v-1.976c0-1.09,0.886-1.976,1.976-1.976
			c1.089,0,1.976,0.886,1.976,1.976v1.976c0,1.089-0.886,1.976-1.976,1.976C112.283,35.487,111.396,34.601,111.396,33.511z"/>
		<path class="st0" d="M103.691,33.246v-7.031c0-1.551-1.262-2.813-2.813-2.813c-1.551,0-2.813,1.262-2.813,2.813v7.031
			c0,1.551,1.262,2.813,2.813,2.813C102.429,36.059,103.691,34.797,103.691,33.246z M98.637,33.246v-7.031
			c0-1.236,1.006-2.242,2.242-2.242c1.236,0,2.242,1.006,2.242,2.242v7.031c0,1.236-1.006,2.242-2.242,2.242
			C99.642,35.487,98.637,34.482,98.637,33.246z"/>
		<polygon class="st0" points="107.034,35.882 107.606,35.882 107.606,23.571 106.042,23.571 106.042,24.142 107.034,24.142 		"/>
		<path class="st0" d="M91.068,35.306l4.422-8.908v-0.546c0-1.362-1.108-2.47-2.47-2.47c-1.362,0-2.47,1.108-2.47,2.47v0.446h0.571
			v-0.446c0-1.047,0.852-1.899,1.899-1.899c1.047,0,1.899,0.852,1.899,1.899v0.412l-4.488,9.042v0.571h0.177h4.467v-0.571H91.068z"
			/>
		<path class="st0" d="M147.328,25.852v0.412l-4.488,9.042v0.571h0.177h4.467v-0.571h-4.007l4.422-8.908v-0.546
			c0-1.362-1.108-2.47-2.47-2.47c-1.362,0-2.47,1.108-2.47,2.47v0.446h0.571v-0.446c0-1.047,0.852-1.899,1.899-1.899
			C146.476,23.953,147.328,24.805,147.328,25.852z"/>
		<path class="st0" d="M131.74,23.579h-4.176v6.377h0.571v-0.003l0.007,0.003c0.271-0.754,1.118-1.323,1.969-1.323
			c1.09,0,1.976,0.886,1.976,1.976v2.903c0,1.089-0.886,1.976-1.976,1.976c-1.089,0-1.976-0.886-1.976-1.976v-0.488h-0.571v0.488
			c0,1.405,1.143,2.547,2.547,2.547c1.405,0,2.547-1.143,2.547-2.547v-2.903c0-1.405-1.143-2.547-2.547-2.547
			c-0.748,0-1.476,0.333-1.976,0.857V24.15h3.605V23.579z"/>
		<polygon class="st0" points="153.601,35.882 153.601,33.507 154.515,33.507 154.515,32.936 153.601,32.936 153.601,28.245 
			153.029,28.245 153.029,32.936 149.972,32.936 153.378,23.571 152.769,23.571 149.364,32.936 149.363,32.936 149.363,33.507 
			153.029,33.507 153.029,35.882 		"/>
		<path class="st0" d="M182.274,33.511v-2.903c0-1.405-1.143-2.547-2.547-2.547c-0.432,0-0.838,0.108-1.195,0.299l1.995-4.768
			h-0.624l-2.459,5.889c-0.169,0.34-0.264,0.723-0.264,1.128v2.903c0,1.405,1.143,2.547,2.547,2.547S182.274,34.916,182.274,33.511z
			 M177.751,33.511v-2.903c0-1.09,0.886-1.976,1.976-1.976s1.976,0.886,1.976,1.976v2.903c0,1.089-0.886,1.976-1.976,1.976
			S177.751,34.601,177.751,33.511z"/>
		<path class="st0" d="M199.248,30.609v2.903c0,1.405,1.143,2.547,2.547,2.547s2.547-1.143,2.547-2.547v-2.903
			c0-1.405-1.143-2.547-2.547-2.547c-0.432,0-0.838,0.108-1.195,0.299l1.995-4.768h-0.624l-2.459,5.889
			C199.343,29.821,199.248,30.204,199.248,30.609z M201.795,28.633c1.089,0,1.976,0.886,1.976,1.976v2.903
			c0,1.089-0.886,1.976-1.976,1.976s-1.976-0.886-1.976-1.976v-2.903C199.819,29.519,200.705,28.633,201.795,28.633z"/>
		<polygon class="st0" points="125.051,22.52 117.663,36.866 118.256,36.866 125.641,22.52 		"/>
		<polygon class="st0" points="141.31,22.52 133.922,36.866 134.514,36.866 141.899,22.52 		"/>
		<polygon class="st0" points="190.586,22.52 183.197,36.866 183.79,36.866 191.175,22.52 		"/>
		<path class="st0" d="M192.402,25.852v0.446h0.571v-0.446c0-1.047,0.852-1.899,1.899-1.899c1.047,0,1.899,0.852,1.899,1.899v0.412
			l-4.488,9.042v0.571h0.177h4.467v-0.571h-4.007l4.422-8.908v-0.546c0-1.362-1.108-2.47-2.47-2.47
			C193.51,23.382,192.402,24.49,192.402,25.852z"/>
	</g>
</g>
</svg>
