<svg xmlns="http://www.w3.org/2000/svg" viewBox="0 0 320 80"><defs><style>.cls-1{fill:#00bdb1;}</style></defs><title>title-teaser</title><g id="レイヤー_1" data-name="レイヤー 1"><path class="cls-1" d="M113.36,69.68a5.46,5.46,0,0,1-3.91-1.59C108,66.65,108,65.15,108,61.9s0-4.75,1.44-6.19a5.46,5.46,0,0,1,3.91-1.59,5.16,5.16,0,0,1,5.31,4.56H117a3.62,3.62,0,0,0-3.64-3.1,3.71,3.71,0,0,0-2.64,1.07c-1,1-1.08,2.05-1.08,5.25s.11,4.26,1.08,5.25a3.71,3.71,0,0,0,2.64,1.07A3.65,3.65,0,0,0,117,65.13h1.63A5.15,5.15,0,0,1,113.36,69.68Z"/><path class="cls-1" d="M129,68.48a4.44,4.44,0,0,1-6.07,0,5.7,5.7,0,0,1-1.29-4.21A5.71,5.71,0,0,1,123,60.05a4.44,4.44,0,0,1,6.07,0,5.71,5.71,0,0,1,1.29,4.22A5.7,5.7,0,0,1,129,68.48ZM127.92,61a2.7,2.7,0,0,0-1.94-.78,2.63,2.63,0,0,0-1.91.78,4.63,4.63,0,0,0-.86,3.27,4.61,4.61,0,0,0,.86,3.26,2.63,2.63,0,0,0,1.91.78,2.7,2.7,0,0,0,1.94-.78,4.61,4.61,0,0,0,.84-3.26C128.76,63.08,128.69,61.77,127.92,61Z"/><path class="cls-1" d="M147.42,69.55V63c0-1.87-1-2.82-2.6-2.82a2.48,2.48,0,0,0-2.65,2.65v6.68h-1.54V63c0-1.87-1-2.82-2.61-2.82A2.5,2.5,0,0,0,135.38,63v6.51h-1.55V59h1.55v1.16a3.86,3.86,0,0,1,3-1.29,3.47,3.47,0,0,1,3.24,1.76,4.06,4.06,0,0,1,3.49-1.76,3.83,3.83,0,0,1,2.73,1A3.94,3.94,0,0,1,149,62.78v6.77Z"/><path class="cls-1" d="M153,56V54.23h1.74V56Zm.08,13.58V59h1.55V69.55Z"/><path class="cls-1" d="M165.49,69.55V63c0-1.87-1-2.82-2.6-2.82A2.5,2.5,0,0,0,160.26,63v6.51h-1.54V59h1.54v1.16a3.83,3.83,0,0,1,3-1.29,3.7,3.7,0,0,1,2.71,1,3.91,3.91,0,0,1,1.1,2.94v6.77Z"/><path class="cls-1" d="M174.41,74.41A4.68,4.68,0,0,1,170.82,73l1-1a3.29,3.29,0,0,0,2.54,1c2,0,2.9-1.44,2.9-3.25V68.16a3.42,3.42,0,0,1-3,1.37,3.6,3.6,0,0,1-2.55-.94c-1.06-1.06-1.29-2.69-1.29-4.41s.23-3.35,1.29-4.41a3.65,3.65,0,0,1,2.58-.92,3.34,3.34,0,0,1,3,1.37V59h1.53v10.9A4.2,4.2,0,0,1,174.41,74.41Zm.24-14.19c-2.3,0-2.65,2-2.65,4s.35,4,2.65,4,2.62-2,2.62-4S177,60.22,174.65,60.22Z"/><path class="cls-1" d="M192.69,69.68a6.68,6.68,0,0,1-5.25-2l1.12-1.12a5.26,5.26,0,0,0,4.17,1.68c2.24,0,3.61-1,3.61-2.84a2.44,2.44,0,0,0-.73-1.91,3.27,3.27,0,0,0-2-.73l-1.78-.28A5.54,5.54,0,0,1,189,61.3a3.64,3.64,0,0,1-1.16-2.86c0-2.6,1.87-4.32,4.9-4.32a6.15,6.15,0,0,1,4.56,1.67l-1.05,1.06a4.84,4.84,0,0,0-3.57-1.31c-2,0-3.23,1.14-3.23,2.83a2.23,2.23,0,0,0,.69,1.77,4.39,4.39,0,0,0,2.06.84l1.68.25a5,5,0,0,1,2.8,1.08,3.86,3.86,0,0,1,1.29,3C198,68,195.87,69.68,192.69,69.68Z"/><path class="cls-1" d="M208.13,68.48a4.44,4.44,0,0,1-6.07,0,5.7,5.7,0,0,1-1.29-4.21,5.71,5.71,0,0,1,1.29-4.22,4.44,4.44,0,0,1,6.07,0,5.71,5.71,0,0,1,1.29,4.22A5.7,5.7,0,0,1,208.13,68.48ZM207,61a2.7,2.7,0,0,0-1.94-.78,2.65,2.65,0,0,0-1.91.78,4.63,4.63,0,0,0-.86,3.27,4.61,4.61,0,0,0,.86,3.26,2.65,2.65,0,0,0,1.91.78,2.7,2.7,0,0,0,1.94-.78,4.61,4.61,0,0,0,.84-3.26C207.87,63.08,207.8,61.77,207,61Z"/><path class="cls-1" d="M219.74,68.48a4.44,4.44,0,0,1-6.07,0,5.7,5.7,0,0,1-1.29-4.21,5.71,5.71,0,0,1,1.29-4.22,4.44,4.44,0,0,1,6.07,0A5.71,5.71,0,0,1,221,64.27,5.7,5.7,0,0,1,219.74,68.48ZM218.64,61a2.69,2.69,0,0,0-1.94-.78,2.65,2.65,0,0,0-1.91.78,4.63,4.63,0,0,0-.86,3.27,4.61,4.61,0,0,0,.86,3.26,2.65,2.65,0,0,0,1.91.78,2.69,2.69,0,0,0,1.94-.78,4.61,4.61,0,0,0,.84-3.26C219.48,63.08,219.41,61.77,218.64,61Z"/><path class="cls-1" d="M231.32,69.55V63c0-1.87-1-2.82-2.6-2.82A2.49,2.49,0,0,0,226.1,63v6.51h-1.55V59h1.55v1.16a3.82,3.82,0,0,1,3-1.29,3.7,3.7,0,0,1,2.71,1,3.91,3.91,0,0,1,1.09,2.94v6.77Z"/><path class="cls-1" d="M87.13,42.07V26.77h9.5v1.46H88.76v5.39h6.71v1.47H88.76v5.52h7.87v1.46Z"/><path class="cls-1" d="M105.73,42.07,103.19,38l-2.58,4.1H98.74l3.59-5.39L98.89,31.5h1.87l2.43,3.91,2.38-3.91h1.87L104,36.68l3.6,5.39Z"/><path class="cls-1" d="M117.23,42.07V35.54c0-1.85-1-2.8-2.58-2.8a2.5,2.5,0,0,0-2.65,2.8v6.53h-1.55V26.77H112v5.89a3.8,3.8,0,0,1,3-1.29,3.57,3.57,0,0,1,3.8,3.91v6.79Z"/><path class="cls-1" d="M122.67,28.49V26.75h1.74v1.74Zm.08,13.58V31.5h1.55V42.07Z"/><path class="cls-1" d="M135.53,41.28a3.69,3.69,0,0,1-2.58.92,3.39,3.39,0,0,1-3-1.39v1.26h-1.55V26.77H130v5.95a3.41,3.41,0,0,1,3-1.35,3.69,3.69,0,0,1,2.58.92c1.07,1.08,1.29,2.84,1.29,4.5S136.6,40.2,135.53,41.28Zm-2.91-8.54c-2.3,0-2.66,2-2.66,4s.36,4,2.66,4,2.65-2,2.65-4S134.92,32.74,132.62,32.74Z"/><path class="cls-1" d="M140.26,28.49V26.75H142v1.74Zm.08,13.58V31.5h1.55V42.07Z"/><path class="cls-1" d="M149,42.07a2.58,2.58,0,0,1-2.7-2.83v-6.5h-1.34V31.56h1.34V28.25h1.54v3.31h2.26v1.18H147.8v6.45c0,1,.45,1.55,1.44,1.55h.82v1.33Z"/><path class="cls-1" d="M153.26,28.49V26.75H155v1.74Zm.09,13.58V31.5h1.55V42.07Z"/><path class="cls-1" d="M165.8,41a4.43,4.43,0,0,1-6.06,0,5.66,5.66,0,0,1-1.29-4.21,5.67,5.67,0,0,1,1.29-4.22,4.43,4.43,0,0,1,6.06,0,5.71,5.71,0,0,1,1.29,4.22A5.7,5.7,0,0,1,165.8,41Zm-1.1-7.48a2.77,2.77,0,0,0-3.85,0,4.63,4.63,0,0,0-.86,3.27,4.61,4.61,0,0,0,.86,3.26,2.77,2.77,0,0,0,3.85,0c.78-.77.84-2.08.84-3.26S165.48,34.29,164.7,33.52Z"/><path class="cls-1" d="M177.39,42.07V35.56c0-1.87-1-2.82-2.6-2.82a2.5,2.5,0,0,0-2.63,2.82v6.51h-1.54V31.5h1.54v1.16a3.83,3.83,0,0,1,3-1.29,3.7,3.7,0,0,1,2.71,1,3.91,3.91,0,0,1,1.1,2.94v6.77Z"/><path class="cls-1" d="M192.7,42.2a6.68,6.68,0,0,1-5.25-2l1.12-1.12a5.26,5.26,0,0,0,4.17,1.68c2.24,0,3.61-1.05,3.61-2.84a2.44,2.44,0,0,0-.73-1.91,3.27,3.27,0,0,0-2-.73L191.84,35A5.54,5.54,0,0,1,189,33.82,3.64,3.64,0,0,1,187.86,31c0-2.6,1.87-4.32,4.9-4.32a6.15,6.15,0,0,1,4.56,1.67l-1,1.06a4.84,4.84,0,0,0-3.57-1.31c-2,0-3.23,1.14-3.23,2.83a2.23,2.23,0,0,0,.69,1.77,4.39,4.39,0,0,0,2.06.84l1.68.25a5,5,0,0,1,2.8,1.08,3.86,3.86,0,0,1,1.29,3C198,40.55,195.88,42.2,192.7,42.2Z"/><path class="cls-1" d="M201.25,28.49V26.75H203v1.74Zm.09,13.58V31.5h1.55V42.07Z"/><path class="cls-1" d="M210,42.07a2.59,2.59,0,0,1-2.71-2.83v-6.5h-1.33V31.56h1.33V28.25h1.55v3.31h2.26v1.18H208.8v6.45c0,1,.45,1.55,1.44,1.55h.82v1.33Z"/><path class="cls-1" d="M215.32,37.19c0,2.33,1.09,3.66,3.11,3.66a3.48,3.48,0,0,0,2.78-1.21l1,.93a4.85,4.85,0,0,1-3.87,1.63c-2.79,0-4.62-1.67-4.62-5.41,0-3.42,1.65-5.42,4.34-5.42s4.34,2,4.34,5.11v.71Zm5.26-2.92a2.71,2.71,0,0,0-4.94,0,4.32,4.32,0,0,0-.32,1.76h5.59A4.48,4.48,0,0,0,220.58,34.27Z"/></g></svg>