<svg xmlns="http://www.w3.org/2000/svg" viewBox="0 0 320 200"><defs><style>.cls-1{fill:#062a30;}</style></defs><title>title</title><g id="レイヤー_1" data-name="レイヤー 1"><path class="cls-1" d="M196.3,171.47v-4.2h-2.08v.67h1.41v3.53a2.65,2.65,0,0,1-5.3,0v-8.31a2.65,2.65,0,1,1,5.3,0h.67a3.33,3.33,0,1,0-6.65,0v8.31a3.33,3.33,0,1,0,6.65,0Z"/><path class="cls-1" d="M163.15,174.53a3.23,3.23,0,0,0,3.23-3.23v-8a3.23,3.23,0,0,0-3.23-3.22H160v14.47Zm-2.48-.68V160.73h2.48a2.55,2.55,0,0,1,2.55,2.55v8a2.55,2.55,0,0,1-2.55,2.55Z"/><polygon class="cls-1" points="173.65 160.05 169.05 160.05 169.05 174.52 173.65 174.52 173.65 173.85 169.72 173.85 169.72 167.94 173.11 167.94 173.11 167.26 169.72 167.26 169.72 160.72 173.65 160.72 173.65 160.05"/><polygon class="cls-1" points="214.6 174.52 214.6 173.85 210.68 173.85 210.68 167.94 214.07 167.94 214.07 167.26 210.68 167.26 210.68 160.72 214.6 160.72 214.6 160.05 210 160.05 210 174.52 214.6 174.52"/><rect class="cls-1" x="185.31" y="160.05" width="0.67" height="14.47"/><path class="cls-1" d="M181.91,173.32c1-1.39.69-3.23-.78-4.93-.3-.35-.71-.8-1.14-1.27a37.94,37.94,0,0,1-2.53-2.93,2.55,2.55,0,0,1-.2-2.86,2.16,2.16,0,0,1,2.49-.7,3.38,3.38,0,0,1,1.66,1l.48-.47a4.15,4.15,0,0,0-2-1.14,2.82,2.82,0,0,0-3.22,1,3.21,3.21,0,0,0,.22,3.63c.65.89,1.67,2,2.57,3,.43.47.83.91,1.13,1.26,1.25,1.45,1.53,3,.74,4.11a3,3,0,0,1-3.51.9,4.57,4.57,0,0,1-1.55-1l-.47.49a5.51,5.51,0,0,0,1.78,1.14,4.13,4.13,0,0,0,1.45.27A3.44,3.44,0,0,0,181.91,173.32Z"/><path class="cls-1" d="M217.72,174.53V168l4.82,6.58h.83l-4.82-6.59h.75a3.93,3.93,0,0,0,0-7.86h-2.25v14.45Zm0-7.26v-6.52h1.58a3.26,3.26,0,0,1,0,6.52Z"/><polygon class="cls-1" points="206.92 174.53 206.92 160.06 206.25 160.06 206.25 173.08 200.21 160.06 199.41 160.06 199.41 174.53 200.08 174.53 200.08 161.36 206.19 174.53 206.92 174.53"/><polygon class="cls-1" points="135.94 160.08 131.35 160.08 131.34 160.08 131.34 174.55 131.35 174.55 135.94 174.55 135.94 174.55 135.94 173.88 135.94 173.88 132.02 173.88 132.01 173.87 132.01 167.97 132.01 167.97 135.4 167.97 135.4 167.96 135.4 167.3 135.4 167.29 132.02 167.29 132.01 167.29 132.01 160.76 132.01 160.75 135.94 160.75 135.94 160.75 135.94 160.08 135.94 160.08"/><path class="cls-1" d="M127.9,160.08v13h0l-6-13h-.8v14.47h.67V161.41h0l6.09,13.14h.74V160.08h-.67Z"/><path class="cls-1" d="M152.23,160.08l-3.3,13.08h0l-3.29-13,0-.06h-.73l0,.06-3.29,13h0l-3.3-13.08h-.69l3.67,14.54H142l3.31-13.1h0l3.3,13.1h.66l3.67-14.54h-.69Z"/><path class="cls-1" d="M76.88,171.43V160.06h-.67v11.37a2.64,2.64,0,0,1-2.64,2.63,2.6,2.6,0,0,1-1.28-.33h0l-.33.57h0a3.26,3.26,0,0,0,1.61.43A3.31,3.31,0,0,0,76.88,171.43Z"/><path class="cls-1" d="M104.52,163.29a3.23,3.23,0,0,0-3.23-3.23H98.14v14.45h3.15a3.23,3.23,0,0,0,3.23-3.23Zm-3.23,10.57H98.81V160.74h2.48a2.56,2.56,0,0,1,2.56,2.56v8A2.56,2.56,0,0,1,101.29,173.86Z"/><path class="cls-1" d="M86.13,174.53h.69l-3.67-14.46H82.5l-3.67,14.46h.69l.66-2.63h5.28l.67,2.63Zm-5.78-3.33,2.47-9.75h0l2.46,9.75H80.35Z"/><path class="cls-1" d="M106.73,174.52l.66-2.63h5.28l.67,2.63H114l-3.67-14.46h-.66L106,174.52h.7Zm.83-3.32,2.47-9.75h0l2.46,9.75h-4.94Z"/><path class="cls-1" d="M95.33,171.47v-4.2H93.25v.66h1.41v3.46a2.7,2.7,0,0,1-2.56,2.72,2.65,2.65,0,0,1-2.75-2.65v-8.24a2.71,2.71,0,0,1,2.56-2.73,2.67,2.67,0,0,1,2.75,2.65h.67a3.34,3.34,0,0,0-3.45-3.32,3.39,3.39,0,0,0-3.2,3.41v8.14a3.37,3.37,0,0,0,3.2,3.41A3.32,3.32,0,0,0,95.33,171.47Z"/><path class="cls-1" d="M158.06,191.72v-8a3.23,3.23,0,0,0-3.23-3.22h-3.16v14.47h3.16A3.23,3.23,0,0,0,158.06,191.72Zm-5.71,2.55V181.15h2.48a2.55,2.55,0,0,1,2.55,2.54v8a2.55,2.55,0,0,1-2.55,2.55Z"/><path class="cls-1" d="M114.21,180.47l-3.67,14.47h.69l.67-2.64h5.28l.66,2.64h.7l-3.68-14.47Zm2.8,11.15h-4.94l2.47-9.78Z"/><path class="cls-1" d="M136.83,180.47l-3.67,14.47h.69l.67-2.64h5.28l.67,2.64h.69l-3.68-14.47Zm2.8,11.15h-4.94l2.47-9.78Z"/><path class="cls-1" d="M166.11,193.74c1-1.39.69-3.23-.77-4.93-.31-.36-.72-.8-1.15-1.27-.89-1-1.89-2.07-2.53-2.93a2.54,2.54,0,0,1-.19-2.86,2.14,2.14,0,0,1,2.49-.7,3.4,3.4,0,0,1,1.65.95l.48-.47a4.1,4.1,0,0,0-2-1.14,2.82,2.82,0,0,0-3.21,1,3.25,3.25,0,0,0,.21,3.64c.66.89,1.68,2,2.57,3,.43.47.84.91,1.14,1.26,1.25,1.45,1.52,3,.73,4.1a3,3,0,0,1-3.51.9,4.54,4.54,0,0,1-1.55-1l-.46.48a5.31,5.31,0,0,0,1.77,1.14,4.13,4.13,0,0,0,1.45.27A3.42,3.42,0,0,0,166.11,193.74Z"/><path class="cls-1" d="M149.33,195l-4.82-6.59h.75a3.93,3.93,0,0,0,0-7.86H143V195h.67v-6.59L148.5,195Zm-5.65-7.26v-6.52h1.58a3.26,3.26,0,1,1,0,6.52Z"/><polygon class="cls-1" points="132.61 180.46 129.31 193.56 126.02 180.52 126.03 180.46 126 180.46 125.34 180.46 125.31 180.46 125.32 180.52 122.03 193.56 118.73 180.46 118.03 180.46 121.71 195.02 122.36 195.02 125.67 181.89 128.98 195.02 129.63 195.02 133.31 180.46 132.61 180.46"/><path class="cls-1" d="M206.84,180.47v14.4h2.25a3.92,3.92,0,0,0,1.16-7.67,3.76,3.76,0,0,0,1.65-3.12,3.61,3.61,0,0,0-3.61-3.61Zm2.25,7.23a3.25,3.25,0,0,1,0,6.5h-1.58v-6.5Zm-.8-6.56a2.94,2.94,0,0,1,2.94,2.94,2.84,2.84,0,0,1-2.68,2.95h-1v-5.89Z"/><polygon class="cls-1" points="174.84 194.2 174.84 188.31 178.21 188.31 178.21 187.65 174.84 187.65 174.84 181.14 178.75 181.14 178.75 180.47 174.17 180.47 174.17 194.87 178.75 194.87 178.75 194.2 174.84 194.2"/><polygon class="cls-1" points="191.47 180.47 190.81 180.47 190.81 194.87 191.47 194.87 191.47 188.34 197.61 188.34 197.61 194.87 198.28 194.87 198.28 180.47 197.61 180.47 197.61 187.67 191.47 187.67 191.47 180.47"/><rect class="cls-1" x="215.87" y="180.47" width="0.67" height="14.39"/><rect class="cls-1" x="201.96" y="180.47" width="0.67" height="14.39"/><rect class="cls-1" x="228.94" y="180.47" width="0.67" height="14.39"/><path class="cls-1" d="M240,191.84v-8.27a3.31,3.31,0,1,0-6.61,0v8.27a3.31,3.31,0,1,0,6.61,0Zm-5.94,0v-8.27a2.64,2.64,0,1,1,5.27,0v8.27a2.64,2.64,0,1,1-5.27,0Z"/><polygon class="cls-1" points="187.62 180.47 186.86 180.47 184.45 186.68 182.05 180.47 181.28 180.47 184.07 187.67 181.28 194.87 182.05 194.87 184.45 188.66 186.85 194.87 187.62 194.87 184.84 187.67 187.62 180.47"/><polygon class="cls-1" points="226.42 180.47 218.95 180.47 218.95 181.14 222.35 181.14 222.35 194.87 223.02 194.87 223.02 181.14 226.42 181.14 226.42 180.47"/><polygon class="cls-1" points="243.7 194.87 243.7 181.77 249.77 194.87 250.5 194.87 250.5 180.47 249.83 180.47 249.83 193.43 243.83 180.47 243.03 180.47 243.03 194.87 243.7 194.87"/></g></svg>